<?xml version="1.0" encoding="UTF-8"?>
<svg version="1.1" xmlns="http://www.w3.org/2000/svg" width="783" height="794">
<path d="M0 0 C258.39 0 516.78 0 783 0 C783 262.02 783 524.04 783 794 C524.61 794 266.22 794 0 794 C0 531.98 0 269.96 0 0 Z " fill="#FEFEFE" transform="translate(0,0)"/>
<path d="M0 0 C1.14855469 0.30292969 2.29710937 0.60585938 3.48046875 0.91796875 C5.27785945 1.32122948 7.07614185 1.72052403 8.875 2.1171875 C11.01484799 2.61101149 13.15414185 3.10724084 15.29296875 3.60546875 C16.42412109 3.86803467 17.55527344 4.13060059 18.72070312 4.40112305 C26.97886953 6.32342036 35.23218895 8.26619079 43.48046875 10.23046875 C45.09078979 10.61174927 45.09078979 10.61174927 46.73364258 11.00073242 C48.21707153 11.35615112 48.21707153 11.35615112 49.73046875 11.71875 C51.03757812 12.03066284 51.03757812 12.03066284 52.37109375 12.34887695 C54.48046875 12.91796875 54.48046875 12.91796875 56.48046875 13.91796875 C57.34293394 16.26932123 58.09199814 18.58057337 58.79296875 20.98046875 C59.23287349 22.43756022 59.67298374 23.89458966 60.11328125 25.3515625 C60.33790039 26.10421387 60.56251953 26.85686523 60.79394531 27.63232422 C61.88910615 31.27844645 63.02924558 34.9102664 64.16796875 38.54296875 C64.37010986 39.19273682 64.57225098 39.84250488 64.78051758 40.51196289 C65.65190109 43.30815026 66.53817116 46.06864747 67.5859375 48.8046875 C68.76685043 52.91467705 68.94495864 56.84814922 69.10546875 61.10546875 C69.14124023 61.94392334 69.17701172 62.78237793 69.21386719 63.64624023 C69.28130496 65.30986577 69.34394231 66.97369406 69.40136719 68.63769531 C69.46957744 70.6040032 69.55538466 72.56968627 69.64453125 74.53515625 C69.67289063 75.50710938 69.70125 76.4790625 69.73046875 77.48046875 C69.76914062 78.71990234 69.76914062 78.71990234 69.80859375 79.984375 C69.7003125 80.62246094 69.59203125 81.26054687 69.48046875 81.91796875 C68.49046875 82.57796875 67.50046875 83.23796875 66.48046875 83.91796875 C66.22422784 86.58692012 66.15669646 89.02162799 66.22265625 91.6875 C66.22963531 92.47129028 66.23661438 93.25508057 66.24380493 94.06262207 C66.25995539 95.74450847 66.28267976 97.42634197 66.3112793 99.10806274 C66.38498229 103.48193837 66.41135868 107.8561115 66.44140625 112.23046875 C66.45195038 113.51405022 66.45195038 113.51405022 66.46270752 114.82356262 C66.50380199 120.97469445 66.35906804 127.08978816 65.98046875 133.23046875 C65.5333062 140.95964931 65.30586744 148.6757432 65.23046875 156.41796875 C65.20919922 157.48829346 65.18792969 158.55861816 65.16601562 159.66137695 C65.14200542 164.99635799 65.15106274 168.51344205 68.48046875 172.91796875 C68.73046875 176.16796875 68.73046875 176.16796875 68.48046875 178.91796875 C68.15046875 179.24796875 67.82046875 179.57796875 67.48046875 179.91796875 C67.06237674 182.74948848 67.06237674 182.74948848 67.48046875 185.91796875 C68.11339844 186.63597656 68.74632812 187.35398437 69.3984375 188.09375 C72.11451875 191.77804033 72.51023823 194.89505544 73.10546875 199.35546875 C73.21375 200.07412109 73.32203125 200.79277344 73.43359375 201.53320312 C73.79983802 203.99257601 74.14005928 206.4548885 74.48046875 208.91796875 C74.80004375 211.15244935 75.12041366 213.38681635 75.44140625 215.62109375 C76.13053709 220.44403352 76.80941172 225.26826387 77.48046875 230.09375 C77.64546875 231.27130859 77.81046875 232.44886719 77.98046875 233.66210938 C78.31648632 236.06017229 78.64977752 238.45861866 78.98046875 240.85742188 C79.79208912 246.61802427 80.70166228 252.28577563 82.03417969 257.94897461 C82.71634225 260.95862509 83.16727276 263.98950783 83.60546875 267.04296875 C83.77304687 268.17992187 83.940625 269.316875 84.11328125 270.48828125 C84.48046875 273.91796875 84.48046875 273.91796875 84.48046875 280.91796875 C63.36046875 280.91796875 42.24046875 280.91796875 20.48046875 280.91796875 C20.48046875 270.68796875 20.48046875 260.45796875 20.48046875 249.91796875 C21.47046875 249.58796875 22.46046875 249.25796875 23.48046875 248.91796875 C23.81197004 244.06075418 22.95242251 241.27646908 20.60546875 237.04296875 C16.0573058 228.80354312 15.18010808 221.53585813 15.25 212.3046875 C15.25045822 211.29565872 15.25091644 210.28662994 15.25138855 209.24702454 C15.25439866 207.11478497 15.2622476 204.98254737 15.2746582 202.8503418 C15.29269828 199.65339988 15.29516888 196.45675274 15.29492188 193.25976562 C15.31135628 183.58027688 15.43556186 173.91800914 15.9296875 164.25 C15.96818314 163.48918625 16.00667877 162.7283725 16.04634094 161.94450378 C16.22013617 158.93554465 16.46509748 156.00406388 16.99511719 153.03540039 C17.68600094 148.59782766 17.71640442 144.19209603 17.796875 139.70703125 C17.82804665 138.25482681 17.82804665 138.25482681 17.85984802 136.77328491 C17.92495859 133.69658143 17.98404873 130.61979639 18.04296875 127.54296875 C18.08619061 125.45051258 18.12980605 123.35806449 18.17382812 121.265625 C18.28060031 116.14982206 18.38197511 111.0339375 18.48046875 105.91796875 C17.82046875 105.91796875 17.16046875 105.91796875 16.48046875 105.91796875 C16.26261719 106.44519531 16.04476562 106.97242188 15.8203125 107.515625 C13.97713784 110.82044254 11.52812626 113.52672309 9.04296875 116.35546875 C7.954059 117.61035778 6.86552565 118.86557351 5.77734375 120.12109375 C4.95073242 121.07145508 4.95073242 121.07145508 4.10742188 122.04101562 C1.64823656 124.87808296 -0.7824201 127.73884196 -3.20703125 130.60546875 C-3.89067749 131.41286499 -3.89067749 131.41286499 -4.58813477 132.23657227 C-7.3940492 135.55935239 -10.15516098 138.91491106 -12.89453125 142.29296875 C-16.51679804 146.74614978 -20.24855437 151.09114325 -24.01953125 155.41796875 C-31.99128836 164.48650796 -31.99128836 164.48650796 -39.51953125 173.91796875 C-39.98101562 174.53027344 -40.4425 175.14257812 -40.91796875 175.7734375 C-41.87891803 179.19915929 -40.27460587 181.89838227 -38.95703125 185.04296875 C-36.04842212 192.52782278 -34.40580146 199.95671227 -33.01953125 207.85546875 C-31.60138509 215.79685704 -30.01671001 223.50913195 -27.45703125 231.16796875 C-27.10705078 232.22939087 -27.10705078 232.22939087 -26.75 233.31225586 C-24.83159397 238.75906354 -22.33852965 243.2388933 -18.08203125 247.16796875 C-8.56196709 257.38462297 -6.45045427 272.50321958 -6.51953125 285.91796875 C-24.5899752 287.72621544 -42.37486714 288.17217786 -60.51953125 287.91796875 C-63.781031 275.18684637 -63.781031 275.18684637 -64.70703125 269.48046875 C-64.94486328 268.05927734 -64.94486328 268.05927734 -65.1875 266.609375 C-65.50778441 264.01318726 -65.58117187 261.53058265 -65.51953125 258.91796875 C-66.42529907 258.55010254 -66.42529907 258.55010254 -67.34936523 258.17480469 C-71.60704266 255.70900163 -73.08331988 251.46164479 -74.51953125 246.91796875 C-75.02925061 242.24143569 -75.04222273 237.61234792 -74.98120117 232.91668701 C-74.80328411 216.36366095 -76.96320747 201.22407304 -80.87109375 185.13818359 C-81.08507812 184.0755127 -81.2990625 183.0128418 -81.51953125 181.91796875 C-81.73141838 180.89601913 -81.73141838 180.89601913 -81.94758606 179.85342407 C-82.98589351 173.57894482 -81.68540125 169.41857045 -79.09375 163.70703125 C-78.71973557 162.83828873 -78.34572113 161.9695462 -77.96037292 161.07447815 C-76.72775001 158.22220043 -75.4673453 155.38310515 -74.20703125 152.54296875 C-73.33321549 150.53262634 -72.46166871 148.52129632 -71.59228516 146.5090332 C-69.79521625 142.35275532 -67.98948819 138.20040205 -66.17822266 134.05029297 C-62.52698235 125.65889226 -59.01220581 117.21142987 -55.49978638 108.76123047 C-53.65225872 104.32189957 -51.79262617 99.88764758 -49.93359375 95.453125 C-47.72204496 90.17682065 -45.51148175 84.90012493 -43.30761719 79.62060547 C-16.66215334 15.82646729 -16.66215334 15.82646729 -6.64453125 3.91796875 C-5.68933594 2.74234375 -5.68933594 2.74234375 -4.71484375 1.54296875 C-2.51953125 -0.08203125 -2.51953125 -0.08203125 0 0 Z " fill="#302F41" transform="translate(483.51953125,382.08203125)"/>
<path d="M0 0 C1.33384893 0.66563448 2.66719284 1.33228202 4 2 C7.42820517 2.38163039 10.86358252 2.56820874 14 1 C23.16912456 0.20776686 29.57271994 0.81291601 36.86328125 6.4375 C43.26112368 12.13664872 47.59572029 20.8506606 48.16113281 29.45092773 C48.50533676 51.85019964 48.50533676 51.85019964 45.703125 61.44140625 C45.03269576 63.88102374 44.86867856 65.92350931 44.8125 68.4375 C43.75648024 73.06774048 41.85778241 74.09297023 38.01171875 76.61328125 C35.46388743 78.36955332 33.77516383 80.48518457 32 83 C33.1446875 83.0928125 33.1446875 83.0928125 34.3125 83.1875 C37 84 37 84 38.6875 86.0625 C44.85205701 99.8593657 43.22373943 116.27268093 43 131 C42.98324219 132.31355469 42.96648437 133.62710938 42.94921875 134.98046875 C42.7014047 140.56690543 41.99192783 143.64571704 38.41015625 147.90625 C33.50574054 155.18815255 30.35478237 166.3440802 32 175 C33.32962777 178.90848721 35.16756614 182.44358317 37.109375 186.07421875 C38.41686351 188.90137592 38.37692796 190.92175498 38 194 C36.20006226 196.69990662 34.916227 198.5418865 32 200 C24.46383188 200.62801401 18.36599419 198.85963586 11.19628906 196.65478516 C7.82299927 195.64909782 4.42456552 194.74101892 1.02563477 193.82641602 C-1.8122711 193.06256161 -4.64661524 192.28655339 -7.48046875 191.5078125 C-10.99819977 190.54167943 -14.52100866 189.60074081 -18.05078125 188.6796875 C-19.57573435 188.26641206 -21.10048645 187.85239396 -22.625 187.4375 C-23.31698486 187.26420166 -24.00896973 187.09090332 -24.72192383 186.91235352 C-29.28526062 185.64058511 -31.41326082 183.94576205 -34 180 C-33.690625 179.319375 -33.38125 178.63875 -33.0625 177.9375 C-30.84193146 171.7982811 -30.91908958 166.33452884 -32.125 160 C-32.32379761 158.90764038 -32.32379761 158.90764038 -32.52661133 157.79321289 C-33.98385605 150.28454636 -36.35954814 143.16992263 -39 136 C-44.43684747 136.56478111 -48.9399039 137.94139481 -53.98046875 140.01171875 C-55.48876171 140.61045593 -56.99723047 141.20875041 -58.50585938 141.80664062 C-60.85851165 142.74903336 -63.20898176 143.69624281 -65.55639648 144.65161133 C-67.83844977 145.57681937 -70.12739333 146.48285713 -72.41796875 147.38671875 C-73.46962471 147.82403572 -73.46962471 147.82403572 -74.54252625 148.27018738 C-79.4056143 150.17157786 -79.4056143 150.17157786 -82.29370117 149.33789062 C-83.9553562 148.03500473 -85.43689182 146.74588588 -86.8828125 145.20703125 C-87.40560791 144.66216064 -87.92840332 144.11729004 -88.46704102 143.5559082 C-89.01416748 142.9805835 -89.56129395 142.40525879 -90.125 141.8125 C-97.41087915 134.33084698 -105.55737496 125.97309049 -116.5 125.6875 C-121.67480508 125.27516493 -121.67480508 125.27516493 -124.4375 122.9375 C-126 120 -126 120 -126.8671875 117.9609375 C-127.80420654 115.83134877 -128.65709635 113.90353333 -130 112 C-132.32873375 111.31744011 -134.66182791 110.64949225 -137 110 C-138.28831296 107.31134687 -138.68259195 105.8619626 -139 103 C-139.13921875 102.23042969 -139.2784375 101.46085937 -139.421875 100.66796875 C-139.88445802 96.34825966 -139.5642098 93.86912318 -137.1640625 90.171875 C-130.78314124 82.75219911 -130.78314124 82.75219911 -125 82 C-123.10338257 80.85353452 -123.10338257 80.85353452 -122 79 C-121.51484628 76.59835952 -121.51484628 76.59835952 -122 74 C-123.92769556 71.8327264 -123.92769556 71.8327264 -126.625 69.9375 C-127.62660156 69.1640625 -128.62820313 68.390625 -129.66015625 67.59375 C-130.20172363 67.17867188 -130.74329102 66.76359375 -131.30126953 66.3359375 C-134.30805852 63.97129977 -137.17479773 61.44490924 -140.0625 58.9375 C-141.82223494 57.42819626 -143.58449775 55.92188947 -145.34716797 54.41601562 C-146.89417864 53.09065936 -148.43370273 51.75657845 -149.97265625 50.421875 C-150.84792969 49.68453125 -151.72320312 48.9471875 -152.625 48.1875 C-153.38039063 47.54167969 -154.13578125 46.89585937 -154.9140625 46.23046875 C-156.89372065 44.80654415 -156.89372065 44.80654415 -159.06640625 45.09375 C-161.38189784 46.1789905 -162.64389638 47.37890722 -164.3125 49.3125 C-164.84488281 49.90675781 -165.37726563 50.50101563 -165.92578125 51.11328125 C-167.21017252 52.92540661 -167.21017252 52.92540661 -166.73730469 54.94311523 C-165.50656792 58.3765448 -162.6214111 60.41269685 -159.9375 62.75 C-159.36966797 63.25660156 -158.80183594 63.76320312 -158.21679688 64.28515625 C-156.8180135 65.53113136 -155.40989267 66.76660973 -154 68 C-154.33 68.99 -154.66 69.98 -155 71 C-158.60109077 69.3833583 -161.5735305 67.22800905 -164.6875 64.8125 C-166.14736328 63.70841797 -166.14736328 63.70841797 -167.63671875 62.58203125 C-170.64601226 59.29419156 -171.10766342 57.43377554 -171 53 C-169.33984375 50.12890625 -169.33984375 50.12890625 -166.9375 47.5625 C-166.16277344 46.69753906 -165.38804687 45.83257812 -164.58984375 44.94140625 C-162 43 -162 43 -159.00390625 42.48046875 C-155.31659519 43.11819615 -153.79819534 44.28409035 -151 46.75 C-150.05125 47.56984375 -149.1025 48.3896875 -148.125 49.234375 C-147.62097656 49.68103516 -147.11695313 50.12769531 -146.59765625 50.58789062 C-144.34979336 52.57469365 -142.06801103 54.52091272 -139.7878418 56.47045898 C-138.59750355 57.48882156 -137.40885647 58.50916427 -136.22192383 59.53149414 C-131.54907476 63.55406154 -126.80257303 67.47382769 -122.01171875 71.35546875 C-120 73 -120 73 -119 74 C-118.52676056 80.27042254 -118.52676056 80.27042254 -120.5 83.3125 C-120.995 83.869375 -121.49 84.42625 -122 85 C-122 85.66 -122 86.32 -122 87 C-115.93578831 91.76222427 -109.49490945 94.85911244 -102.1171875 96.98046875 C-100 98 -100 98 -99.2578125 99.86328125 C-99.17273438 100.56839844 -99.08765625 101.27351563 -99 102 C-98.49839692 105.07919931 -98.49839692 105.07919931 -96.46875 107.34375 C-94.32924158 108.60028669 -92.18770948 109.828802 -90 111 C-89.23429687 111.40992188 -88.46859375 111.81984375 -87.6796875 112.2421875 C-82.85279839 114.61472621 -80.37336466 115.23293518 -75 114 C-72.2500076 112.64804651 -72.2500076 112.64804651 -69.5859375 110.8671875 C-68.57660156 110.22523438 -67.56726563 109.58328125 -66.52734375 108.921875 C-65.48707031 108.24640625 -64.44679688 107.5709375 -63.375 106.875 C-61.32149506 105.55805006 -59.26680726 104.24294271 -57.2109375 102.9296875 C-56.19870117 102.28225586 -55.18646484 101.63482422 -54.14355469 100.96777344 C-49.16805515 97.85325602 -44.0934025 94.91749187 -39 92 C-39.56806507 88.09666178 -40.69469797 85.51760155 -42.87109375 82.2421875 C-43.73250977 80.93314453 -43.73250977 80.93314453 -44.61132812 79.59765625 C-45.21396484 78.69917969 -45.81660156 77.80070312 -46.4375 76.875 C-47.03626953 75.96878906 -47.63503906 75.06257813 -48.25195312 74.12890625 C-49.82719307 71.74752448 -51.41117448 69.37232943 -53 67 C-55.56616632 63.15075052 -55.55097676 60.5650696 -56 56 C-56.94875 56.20625 -57.8975 56.4125 -58.875 56.625 C-59.90625 56.74875 -60.9375 56.8725 -62 57 C-64 55 -64 55 -64.4375 51.625 C-65.00892323 47.94249472 -65.71975302 46.77595284 -68 44 C-68 43.01 -68 42.02 -68 41 C-65.76953125 38.921875 -65.76953125 38.921875 -62.8125 36.75 C-61.84957031 36.02296875 -60.88664062 35.2959375 -59.89453125 34.546875 C-57 33 -57 33 -54.3515625 33.0546875 C-51.6910734 34.12418644 -50.44690255 35.23301724 -48.5625 37.375 C-45.65384256 40.48139512 -42.97881843 42.35024602 -39 44 C-39 45.65 -39 47.3 -39 49 C-38.175 49.33 -37.35 49.66 -36.5 50 C-32.65621762 51.91286823 -30.03757282 54.80064401 -27.08984375 57.8671875 C-23.06013506 61.97975001 -18.79237942 65.80508039 -14 69 C-13.63068359 68.04287109 -13.63068359 68.04287109 -13.25390625 67.06640625 C-11.24562686 62.1551934 -9.02650363 57.33716287 -6.83398438 52.50585938 C-6.48529297 51.72919922 -6.13660156 50.95253906 -5.77734375 50.15234375 C-5.46015381 49.45101318 -5.14296387 48.74968262 -4.81616211 48.02709961 C-3.0510375 43.64306443 -2.74249479 39.45563391 -2.4375 34.75 C-2.35371094 33.48671875 -2.26992188 32.2234375 -2.18359375 30.921875 C-2.12300781 29.95765625 -2.06242188 28.9934375 -2 28 C-5.3 28.33 -8.6 28.66 -12 29 C-12.33 28.01 -12.66 27.02 -13 26 C-13.33 27.32 -13.66 28.64 -14 30 C-15.62418745 30.08090971 -17.24951745 30.13914995 -18.875 30.1875 C-19.77992188 30.22230469 -20.68484375 30.25710937 -21.6171875 30.29296875 C-22.40351563 30.19628906 -23.18984375 30.09960938 -24 30 C-26.50069848 26.24895227 -26.60767788 23.33944331 -26 19 C-23.62173658 11.21796083 -17.67684631 6.01689954 -11.5625 1 C-7.7599942 -0.4839047 -4.02999693 -0.55511586 0 0 Z " fill="#403E56" transform="translate(510,180)"/>
<path d="M0 0 C0.66 0 1.32 0 2 0 C2.02477198 6.1564098 2.04289416 12.31279039 2.05493164 18.46923828 C2.05995146 20.56234238 2.06676868 22.65544299 2.07543945 24.74853516 C2.08760805 27.76205305 2.09325191 30.77552446 2.09765625 33.7890625 C2.10281754 34.72054108 2.10797882 35.65201965 2.11329651 36.61172485 C2.11369136 41.21446238 1.83075801 45.46118705 1 50 C0.78088115 52.78741601 0.59622577 55.56033153 0.45703125 58.3515625 C0.39489189 59.58104111 0.39489189 59.58104111 0.33149719 60.83535767 C-0.12485043 70.62894179 -0.25769092 80.42387226 -0.29516602 90.22705078 C-0.30678153 92.33649349 -0.32738053 94.44590471 -0.35668945 96.55517578 C-0.69510764 116.01302138 -0.69510764 116.01302138 6.25 133.9375 C8.16982321 137.29719061 8.37096789 139.19757909 8 143 C6.68 143.33 5.36 143.66 4 144 C4 154.23 4 164.46 4 175 C25.12 175 46.24 175 68 175 C68.33 174.34 68.66 173.68 69 173 C69 173.99 69 174.98 69 176 C63.39 176 57.78 176 52 176 C52 182.6 52 189.2 52 196 C53.32 196 54.64 196 56 196 C56.33972801 198.81185594 56.67190212 201.62428236 57 204.4375 C57.14308594 205.6121582 57.14308594 205.6121582 57.2890625 206.81054688 C57.42441406 207.98520508 57.42441406 207.98520508 57.5625 209.18359375 C57.64628906 209.89056396 57.73007812 210.59753418 57.81640625 211.32592773 C58.08298062 215.20862601 58 219.10816139 58 223 C92.65 223 127.3 223 163 223 C162.67 223.99 162.34 224.98 162 226 C57.72 226 -46.56 226 -154 226 C-154 225.01 -154 224.02 -154 223 C-128.26 223 -102.52 223 -76 223 C-76.495 219.535 -76.495 219.535 -77 216 C-74.77252265 214.39344326 -72.54310558 212.78970321 -70.3125 211.1875 C-69.68666016 210.73568359 -69.06082031 210.28386719 -68.41601562 209.81835938 C-67.80048828 209.37685547 -67.18496094 208.93535156 -66.55078125 208.48046875 C-65.9472583 208.04694092 -65.34373535 207.61341309 -64.72192383 207.16674805 C-63 206 -63 206 -60.09375 204.46875 C-57.80385913 203.18003268 -57.80385913 203.18003268 -57.29296875 200.73828125 C-57.25816406 199.93777344 -57.22335937 199.13726563 -57.1875 198.3125 C-57.13980469 197.50425781 -57.09210938 196.69601562 -57.04296875 195.86328125 C-57.02878906 195.24839844 -57.01460938 194.63351562 -57 194 C-56.34 194 -55.68 194 -55 194 C-55.165 193.505 -55.33 193.01 -55.5 192.5 C-56.2052265 188.97386748 -56.02923615 185.5960465 -56 182 C-52.18803848 181.66031579 -48.3753608 181.32942405 -44.5625 181 C-42.95858398 180.85691406 -42.95858398 180.85691406 -41.32226562 180.7109375 C-35.18697229 180.18559128 -29.15747494 179.89640421 -23 180 C-24.39196279 165.54020746 -26.71250445 149.08536151 -37.5625 138.5 C-47.79756629 128.00249611 -49.5310107 108.82797573 -52.109375 95.05810547 C-53.49886181 87.86397115 -55.3835403 81.29830432 -58.27734375 74.57421875 C-59 72 -59 72 -58.21533203 70.04443359 C-57.03718035 68.06254486 -55.80539634 66.43703311 -54.27734375 64.71484375 C-53.74367188 64.10769531 -53.21 63.50054688 -52.66015625 62.875 C-52.09167969 62.235625 -51.52320313 61.59625 -50.9375 60.9375 C-49.74749539 59.58308686 -48.55869743 58.22761261 -47.37109375 56.87109375 C-46.79085449 56.20835449 -46.21061523 55.54561523 -45.61279297 54.86279297 C-43.52337528 52.4494934 -41.50538675 49.98339328 -39.5 47.5 C-35.92458474 43.08331056 -32.23400652 38.78219615 -28.5 34.5 C-24.01522176 29.35605527 -19.63175806 24.15069805 -15.33984375 18.84375 C-11.92974973 14.69926177 -8.41825494 10.64309896 -4.89624023 6.59350586 C-2.16010965 3.49754301 -2.16010965 3.49754301 0 0 Z " fill="#FDFDFD" transform="translate(500,488)"/>
<path d="M0 0 C10.46181769 8.48901778 17.45590303 21.20735719 19.86328125 34.4140625 C21.46884046 51.2619091 17.75849694 66.4799336 7.79296875 80.28125 C0.19342453 89.24271971 -9.16231538 94.58065421 -20.13671875 98.4140625 C-21.02230469 98.82914062 -21.90789062 99.24421875 -22.8203125 99.671875 C-25.82096745 100.88916197 -27.8912395 101.53241097 -31.13671875 101.4140625 C-35.44632028 98.71215629 -38.65037928 95.08337298 -42.13671875 91.4140625 C-44.8534632 89.07453783 -47.63620888 86.83956041 -50.43359375 84.59765625 C-52.26140838 83.12114125 -54.06328368 81.61202147 -55.83984375 80.07421875 C-56.7009375 79.34074219 -57.56203125 78.60726562 -58.44921875 77.8515625 C-59.20847656 77.19027344 -59.96773438 76.52898437 -60.75 75.84765625 C-63.83094127 73.99707451 -65.59997716 73.85661581 -69.13671875 74.4140625 C-71.3388567 76.1064832 -71.3388567 76.1064832 -73.01171875 78.4140625 C-73.60726563 79.1565625 -74.2028125 79.8990625 -74.81640625 80.6640625 C-75.25210937 81.2415625 -75.6878125 81.8190625 -76.13671875 82.4140625 C-83.09681337 79.51028109 -86.03634535 71.98926014 -88.88671875 65.4140625 C-94.6680354 50.65404507 -94.69764778 36.29729935 -88.98828125 21.421875 C-82.57249622 7.1439719 -70.8575777 -3.66931255 -56.38671875 -9.4609375 C-36.68708283 -16.78764938 -16.52487418 -12.2652631 0 0 Z " fill="#6C63FE" transform="translate(417.13671875,149.5859375)"/>
<path d="M0 0 C18.48 0 36.96 0 56 0 C54.02 2.64 52.04 5.28 50 8 C47.59963884 12.36429302 47.75983692 16.11668398 48 21 C48.495 21.99 48.495 21.99 49 23 C51.35599235 23.46751788 51.35599235 23.46751788 54.0625 23.625 C54.98160156 23.69976562 55.90070313 23.77453125 56.84765625 23.8515625 C57.55792969 23.90054688 58.26820313 23.94953125 59 24 C59 22.35 59 20.7 59 19 C59.66 19.33 60.32 19.66 61 20 C61 20.99 61 21.98 61 23 C64.3 22.67 67.6 22.34 71 22 C72.31492638 37.5843126 66.89621402 49.78364178 59 63 C55.8955871 61.61564594 53.74283128 60.00256589 51.3203125 57.62890625 C50.29744141 56.64374023 50.29744141 56.64374023 49.25390625 55.63867188 C47.84059085 54.26036521 46.42911422 52.88017043 45.01953125 51.49804688 C41.20950921 47.83511608 37.903418 45.02131494 33 43 C33 41.35 33 39.7 33 38 C31.7315625 37.4740625 31.7315625 37.4740625 30.4375 36.9375 C27.31974617 35.18022057 25.78530079 33.82949166 23.4375 31.25 C20.97045176 28.56863542 20.97045176 28.56863542 17.5625 27.6875 C14.32369873 29.34639821 11.58959883 31.43101434 8.76953125 33.72265625 C7 35 7 35 5 35 C5.639375 36.010625 6.27875 37.02125 6.9375 38.0625 C9.06848956 41.75219924 9.65539613 44.77860255 10 49 C12.49064888 49.68707555 14.37886292 50 17 50 C17.153479 50.54309814 17.30695801 51.08619629 17.46508789 51.64575195 C19.32812059 57.75704889 22.01635628 62.81534259 25.4375 68.1875 C26.15389648 69.33895508 26.15389648 69.33895508 26.88476562 70.51367188 C29.48055554 74.69520447 29.48055554 74.69520447 32.27392578 78.74462891 C35.04681233 82.54230379 35.04681233 82.54230379 34.79174805 85.03613281 C33.40403546 88.47824199 29.87335393 89.73680549 26.75 91.4375 C21.55159686 94.35042739 16.43800295 97.32149364 11.4453125 100.578125 C10.51879883 101.1769751 9.59228516 101.7758252 8.63769531 102.39282227 C6.82296752 103.57168971 5.01722694 104.76453154 3.22167969 105.97241211 C-0.65413821 108.46236081 -3.01942044 109.98030548 -7.6953125 110.07421875 C-11.30284548 108.90155732 -14.43443397 107.46957547 -17.75 105.625 C-18.85859375 105.01914062 -19.9671875 104.41328125 -21.109375 103.7890625 C-25.68137513 100.95936512 -25.68137513 100.95936512 -27 99 C-27.1875 95.8125 -27.1875 95.8125 -27 93 C-28.23363281 92.58041016 -28.23363281 92.58041016 -29.4921875 92.15234375 C-37.21596849 89.37856097 -43.53994525 86.06013318 -50 81 C-48.125 76.125 -48.125 76.125 -47 75 C-46.6290398 70.08477738 -46.84835652 67.75709077 -50 64 C-48.81664062 63.63648438 -47.63328125 63.27296875 -46.4140625 62.8984375 C-37.66834231 60.14452116 -29.48290255 57.46827494 -22 52 C-21.3709375 51.55140625 -20.741875 51.1028125 -20.09375 50.640625 C-9.54740536 42.40707524 -3.02861856 29.01696907 -1 16 C-0.67 10.72 -0.34 5.44 0 0 Z " fill="#FDFDFD" transform="translate(437,186)"/>
<path d="M0 0 C1.33384893 0.66563448 2.66719284 1.33228202 4 2 C7.42820517 2.38163039 10.86358252 2.56820874 14 1 C23.16912456 0.20776686 29.57271994 0.81291601 36.86328125 6.4375 C43.26112368 12.13664872 47.59572029 20.8506606 48.16113281 29.45092773 C48.50533676 51.85019964 48.50533676 51.85019964 45.703125 61.44140625 C45.03269576 63.88102374 44.86867856 65.92350931 44.8125 68.4375 C43.76994886 73.00868575 42.07021594 74.00517769 38.25390625 76.4765625 C35.85871347 78.09549696 33.94223859 79.92204195 31.875 81.9375 C29.2482898 84.23522888 28.34449008 84.94596234 24.8125 85.5 C21.00047821 83.46692171 19.89623128 80.86139389 18.078125 77.03125 C17.16808925 74.84222147 17.16808925 74.84222147 15 74 C11.58218746 73.87102594 8.53295874 73.88156473 5.1875 74.625 C4.465625 74.74875 3.74375 74.8725 3 75 C1 73 1 73 0.98828125 71.08203125 C1.09527344 70.33308594 1.20226562 69.58414063 1.3125 68.8125 C1.42078125 68.01585937 1.5290625 67.21921875 1.640625 66.3984375 C1.75921875 65.60695313 1.8778125 64.81546875 2 64 C2.09796875 63.29101562 2.1959375 62.58203125 2.296875 61.8515625 C2.52149309 60.23299098 2.75928111 58.61625538 3 57 C2.63648438 57.64066406 2.27296875 58.28132813 1.8984375 58.94140625 C-6.55578539 73.48700511 -6.55578539 73.48700511 -13 76 C-16.25 75.625 -16.25 75.625 -19 75 C-17.625 72.5 -17.625 72.5 -16 70 C-15.34 70 -14.68 70 -14 70 C-13.90460938 69.48824219 -13.80921875 68.97648437 -13.7109375 68.44921875 C-12.72670761 65.0584927 -11.15909637 61.97967942 -9.625 58.8125 C-4.66286769 48.27962443 -2.48650828 39.79363186 -2 28 C-6.95 28.495 -6.95 28.495 -12 29 C-12.33 28.01 -12.66 27.02 -13 26 C-13.33 27.32 -13.66 28.64 -14 30 C-15.62418745 30.08090971 -17.24951745 30.13914995 -18.875 30.1875 C-19.77992188 30.22230469 -20.68484375 30.25710937 -21.6171875 30.29296875 C-22.79667969 30.14794922 -22.79667969 30.14794922 -24 30 C-26.50069848 26.24895227 -26.60767788 23.33944331 -26 19 C-23.62173658 11.21796083 -17.67684631 6.01689954 -11.5625 1 C-7.7599942 -0.4839047 -4.02999693 -0.55511586 0 0 Z " fill="#302F42" transform="translate(510,180)"/>
<path d="M0 0 C6.27 0 12.54 0 19 0 C19.33670126 3.54137572 19.66947726 7.08304682 20 10.625 C20.09539062 11.62402344 20.19078125 12.62304688 20.2890625 13.65234375 C20.37929688 14.62558594 20.46953125 15.59882812 20.5625 16.6015625 C20.64628906 17.49182129 20.73007812 18.38208008 20.81640625 19.29931641 C21.0131549 22.19351004 21 25.09912654 21 28 C38.82 28 56.64 28 75 28 C74.67 26.02 74.34 24.04 74 22 C77.19243777 17.44671074 83.00539101 14.77546517 87.77539062 12.0625 C91.62055536 9.72993091 91.62055536 9.72993091 93.67822266 5.88867188 C94.02904673 3.43698918 94.02904673 3.43698918 94 0 C96.41674224 -0.02705308 98.8331794 -0.04686438 101.25 -0.0625 C101.93191406 -0.07087891 102.61382813 -0.07925781 103.31640625 -0.08789062 C106.72731171 -0.10444842 109.72148706 0.08543413 113 1 C113.33972801 3.81185594 113.67190212 6.62428236 114 9.4375 C114.14308594 10.6121582 114.14308594 10.6121582 114.2890625 11.81054688 C114.42441406 12.98520508 114.42441406 12.98520508 114.5625 14.18359375 C114.64628906 14.89056396 114.73007812 15.59753418 114.81640625 16.32592773 C115.08298062 20.20862601 115 24.10816139 115 28 C149.65 28 184.3 28 220 28 C219.67 28.99 219.34 29.98 219 31 C114.72 31 10.44 31 -97 31 C-97 30.01 -97 29.02 -97 28 C-71.26 28 -45.52 28 -19 28 C-19.495 24.535 -19.495 24.535 -20 21 C-17.77252265 19.39344326 -15.54310558 17.78970321 -13.3125 16.1875 C-12.37374023 15.50977539 -12.37374023 15.50977539 -11.41601562 14.81835938 C-10.49272461 14.15610352 -10.49272461 14.15610352 -9.55078125 13.48046875 C-8.9470166 13.0426709 -8.34325195 12.60487305 -7.72119141 12.15380859 C-6 11 -6 11 -3.10546875 9.67578125 C-0.0042777 7.60823973 -0.0042777 7.60823973 0 0 Z " fill="#D9D9DA" transform="translate(443,683)"/>
<path d="M0 0 C18.48 0 36.96 0 56 0 C54.02 2.64 52.04 5.28 50 8 C47.59963884 12.36429302 47.75983692 16.11668398 48 21 C48.495 21.99 48.495 21.99 49 23 C51.35599235 23.46751788 51.35599235 23.46751788 54.0625 23.625 C54.98160156 23.69976562 55.90070313 23.77453125 56.84765625 23.8515625 C57.55792969 23.90054688 58.26820313 23.94953125 59 24 C59 22.35 59 20.7 59 19 C59.66 19.33 60.32 19.66 61 20 C61 20.99 61 21.98 61 23 C64.3 22.67 67.6 22.34 71 22 C72.31492638 37.5843126 66.89621402 49.78364178 59 63 C55.8955871 61.61564594 53.74283128 60.00256589 51.3203125 57.62890625 C50.29744141 56.64374023 50.29744141 56.64374023 49.25390625 55.63867188 C47.84059085 54.26036521 46.42911422 52.88017043 45.01953125 51.49804688 C41.20950921 47.83511608 37.903418 45.02131494 33 43 C33 41.35 33 39.7 33 38 C31.7315625 37.4740625 31.7315625 37.4740625 30.4375 36.9375 C26.722588 34.84364051 24.53654321 32.54671286 21.80859375 29.328125 C20.04901557 27.7453056 20.04901557 27.7453056 17.5859375 28.10546875 C14.75222034 29.0857123 12.6393208 30.342566 10.1875 32.0625 C9.39730469 32.61035156 8.60710937 33.15820312 7.79296875 33.72265625 C6.90544922 34.35494141 6.90544922 34.35494141 6 35 C4.99466333 33.37829621 3.99588093 31.75252763 3 30.125 C2.443125 29.22007812 1.88625 28.31515625 1.3125 27.3828125 C0 25 0 25 0 23 C-0.66 23 -1.32 23 -2 23 C-1.34 15.41 -0.68 7.82 0 0 Z " fill="#FDFDFD" transform="translate(437,186)"/>
<path d="M0 0 C3.83529398 0.59208455 5.94219677 2.33878299 8.875 4.8125 C9.84050781 5.62203125 10.80601562 6.4315625 11.80078125 7.265625 C15.82852034 10.69894269 19.84944413 14.14092273 23.84570312 17.61083984 C28.17607271 21.35605682 32.65339217 24.84094261 37.3046875 28.18359375 C39 30 39 30 39.4296875 32.55078125 C39 35 39 35 36.25 37.75 C33 40 33 40 31.02734375 40.41015625 C26.9111482 41.60773915 24.35913945 45.59166432 22 49 C20.96975233 52.29889553 20.96975233 52.29889553 21 55 C20.67 55 20.34 55 20 55 C20 54.154375 20 53.30875 20 52.4375 C18.34060423 46.73332703 13.57962723 43.92612167 8.94921875 40.46875 C5.59112318 37.85458036 4.19045134 36.63857212 2.9375 32.4375 C3 29 3 29 5 24 C0.71 20.04 -3.58 16.08 -8 12 C-6.9814744 7.92589762 -6.17407101 6.73535019 -3.4375 3.75 C-2.79683594 3.04359375 -2.15617187 2.3371875 -1.49609375 1.609375 C-0.75552734 0.81273437 -0.75552734 0.81273437 0 0 Z " fill="#FBF9FA" transform="translate(350,224)"/>
<path d="M0 0 C0.91257505 0.00184359 1.82515011 0.00368717 2.76537895 0.00558662 C4.3345356 0.00146263 4.3345356 0.00146263 5.93539238 -0.00274467 C7.08769341 0.00444588 8.23999443 0.01163643 9.42721367 0.01904488 C10.63694847 0.01875282 11.84668327 0.01846077 13.09307671 0.01815987 C16.41526325 0.01931656 19.7372029 0.02936439 23.05934572 0.04330778 C26.52936295 0.05578888 29.99938327 0.05698356 33.46941948 0.0593586 C40.04258826 0.0655811 46.61569072 0.08200227 53.18883026 0.10205758 C60.67119169 0.12439268 68.15355624 0.13540398 75.6359427 0.14544845 C91.02978371 0.16636787 106.4235585 0.20155874 121.81735039 0.24609566 C119.51676096 1.39778055 117.21390252 2.5441746 114.90719414 3.68359566 C113.8669207 4.19922066 112.82664726 4.71484566 111.75485039 5.24609566 C110.71199883 5.76172066 109.66914726 6.27734566 108.59469414 6.80859566 C105.71735132 8.23319783 105.71735132 8.23319783 102.81735039 10.24609566 C100.79555893 10.47936726 100.79555893 10.47936726 98.43914604 10.45536995 C97.54456688 10.45115028 96.64998772 10.44693062 95.72830009 10.44258308 C94.74947868 10.42761284 93.77065727 10.41264259 92.76217461 10.3972187 C91.72946434 10.38936348 90.69675407 10.38150826 89.63274956 10.37341499 C86.21233976 10.34478999 82.79228533 10.30154833 79.37203789 10.25781441 C77.0021823 10.23418898 74.6323191 10.21131547 72.26244926 10.18916512 C67.29416863 10.14060053 62.3260263 10.08522504 57.35787773 10.02466011 C50.97402917 9.94705422 44.59013494 9.88272427 38.20609665 9.82300282 C33.31292005 9.77638928 28.41980977 9.72460133 23.52670479 9.67103195 C21.17186675 9.64553489 18.81701534 9.62124339 16.46215248 9.59815216 C13.17926566 9.56482488 9.89652522 9.52497925 6.61373711 9.4831562 C5.63086723 9.47425865 4.64799736 9.4653611 3.63534355 9.45619392 C2.74640404 9.44351479 1.85746452 9.43083565 0.94158745 9.41777229 C0.16472525 9.40872211 -0.61213696 9.39967192 -1.41254044 9.39034748 C-3.18264961 9.24609566 -3.18264961 9.24609566 -4.18264961 8.24609566 C-4.37014961 5.30859566 -4.37014961 5.30859566 -4.18264961 2.24609566 C-2.18264961 0.24609566 -2.18264961 0.24609566 0 0 Z " fill="#E7E7E7" transform="translate(243.18264961242676,138.75390434265137)"/>
<path d="M0 0 C15.60039041 3.52865973 31.10534141 7.25675619 46.37719727 12.0324707 C47.54786743 12.39538208 47.54786743 12.39538208 48.7421875 12.765625 C49.4213623 12.97993164 50.10053711 13.19423828 50.80029297 13.41503906 C53.49062002 14.13046899 56.25404875 14.54234146 59 15 C59 20.28 59 25.56 59 31 C45.23426622 28.12205751 31.59215448 24.9593145 18.00390625 21.33203125 C17.15328613 21.10596191 16.30266602 20.87989258 15.42626953 20.64697266 C13.86328895 20.23019881 12.30163925 19.80838491 10.74169922 19.38037109 C6.93244739 18.36641039 4.01167097 18 0 18 C0 12.06 0 6.12 0 0 Z " fill="#FCB4B4" transform="translate(480,365)"/>
<path d="M0 0 C1.36377274 0.01078583 1.36377274 0.01078583 2.75509644 0.02178955 C4.18930939 0.02135147 4.18930939 0.02135147 5.65249634 0.02090454 C8.82334363 0.02230157 11.993958 0.03788034 15.1647644 0.05352783 C17.35908886 0.05725663 19.55341498 0.06010423 21.7477417 0.06210327 C27.53132704 0.06975018 33.3148124 0.08940775 39.09835815 0.11151123 C44.99678189 0.13194691 50.89522174 0.14110011 56.79367065 0.15118408 C68.37314174 0.17265264 79.95253852 0.20680132 91.5319519 0.24884033 C91.8413269 1.36259033 92.1507019 2.47634033 92.4694519 3.62384033 C93.35521673 7.04335583 93.35521673 7.04335583 94.5319519 9.24884033 C81.26735981 9.29510228 68.00278679 9.33067821 54.73813057 9.35246468 C48.57936893 9.36291903 42.42066233 9.3771083 36.26193237 9.39971924 C30.32270641 9.42138879 24.38353352 9.4333965 18.44427109 9.43859482 C16.17397094 9.44230119 13.90367382 9.44953838 11.63339615 9.46030045 C8.46296066 9.47473711 5.29274679 9.47682156 2.12228394 9.47589111 C1.17569916 9.48308167 0.22911438 9.49027222 -0.74615479 9.49768066 C-2.03764435 9.49355667 -2.03764435 9.49355667 -3.35522461 9.48934937 C-4.48073384 9.49211474 -4.48073384 9.49211474 -5.62898064 9.49493599 C-7.4680481 9.24884033 -7.4680481 9.24884033 -9.4680481 7.24884033 C-8.80180822 0.58644158 -6.36709967 0.02115856 0 0 Z " fill="#E6E6E6" transform="translate(247.46804809570313,232.75115966796875)"/>
<path d="M0 0 C2.41674224 -0.02705308 4.8331794 -0.04686438 7.25 -0.0625 C7.93191406 -0.07087891 8.61382813 -0.07925781 9.31640625 -0.08789062 C12.72731171 -0.10444842 15.72148706 0.08543413 19 1 C19.33972801 3.81185594 19.67190212 6.62428236 20 9.4375 C20.09539063 10.22060547 20.19078125 11.00371094 20.2890625 11.81054688 C20.91511131 17.24375619 21.08759571 22.53074263 21 28 C18.03 28 15.06 28 12 28 C12 26.02 12 24.04 12 22 C11.34 22 10.68 22 10 22 C9.34 23.98 8.68 25.96 8 28 C-0.91 28 -9.82 28 -19 28 C-20 22 -20 22 -18.54296875 19.921875 C-14.64439053 16.97548408 -10.47062623 14.47744691 -6.22460938 12.0625 C-2.37944464 9.72993091 -2.37944464 9.72993091 -0.32177734 5.88867188 C0.02904673 3.43698918 0.02904673 3.43698918 0 0 Z " fill="#323143" transform="translate(537,683)"/>
<path d="M0 0 C6.27 0 12.54 0 19 0 C19.33670126 3.54137572 19.66947726 7.08304682 20 10.625 C20.09539062 11.62402344 20.19078125 12.62304688 20.2890625 13.65234375 C20.73400626 18.45138006 21.13177309 23.17381074 21 28 C18.03 28 15.06 28 12 28 C12 26.02 12 24.04 12 22 C11.34 22 10.68 22 10 22 C9.34 23.98 8.68 25.96 8 28 C-0.91 28 -9.82 28 -19 28 C-19.33 25.69 -19.66 23.38 -20 21 C-17.77252265 19.39344326 -15.54310558 17.78970321 -13.3125 16.1875 C-12.68666016 15.73568359 -12.06082031 15.28386719 -11.41601562 14.81835938 C-10.80048828 14.37685547 -10.18496094 13.93535156 -9.55078125 13.48046875 C-8.9470166 13.0426709 -8.34325195 12.60487305 -7.72119141 12.15380859 C-6 11 -6 11 -3.10546875 9.67578125 C-0.0042777 7.60823973 -0.0042777 7.60823973 0 0 Z " fill="#323143" transform="translate(443,683)"/>
<path d="M0 0 C18.48 0 36.96 0 56 0 C50 8 50 8 49 9 C47.64905018 9.09268999 46.29332909 9.11747326 44.93920898 9.11352539 C44.07839218 9.11344986 43.21757538 9.11337433 42.33067322 9.11329651 C41.39526199 9.10813522 40.45985077 9.10297394 39.49609375 9.09765625 C38.54307877 9.0962413 37.59006378 9.09482635 36.60816956 9.09336853 C33.55124835 9.08775152 30.49439923 9.07519616 27.4375 9.0625 C25.37044376 9.05748719 23.30338638 9.05292391 21.23632812 9.04882812 C16.15752412 9.03777656 11.0787743 9.02050055 6 9 C6.62487305 10.10625732 7.24974609 11.21251465 7.89355469 12.35229492 C8.24504578 12.97456467 8.59653687 13.59683441 8.9586792 14.23796082 C10.66488802 17.12506995 12.74766622 19.67960918 14.828125 22.30078125 C16 24 16 24 16 26 C16.99 26.33 17.98 26.66 19 27 C17.96875 27.5775 16.9375 28.155 15.875 28.75 C12.47343193 30.68979442 9.23300283 32.79209563 6 35 C4.99466333 33.37829621 3.99588093 31.75252763 3 30.125 C2.443125 29.22007812 1.88625 28.31515625 1.3125 27.3828125 C0 25 0 25 0 23 C-0.66 23 -1.32 23 -2 23 C-1.34 15.41 -0.68 7.82 0 0 Z " fill="#E6E6E6" transform="translate(437,186)"/>
<path d="M0 0 C0.99 0.103125 1.98 0.20625 3 0.3125 C5 3.3125 5 3.3125 4.93896484 5.51123047 C3.59755321 9.51314338 1.36152234 12.67398404 -1.0234375 16.1328125 C-1.52541656 16.87328827 -2.02739563 17.61376404 -2.54458618 18.37667847 C-3.6049857 19.93749125 -4.66931739 21.49563885 -5.73730469 23.05126953 C-7.37024699 25.43057454 -8.99076514 27.81795916 -10.609375 30.20703125 C-11.64251085 31.72444765 -12.67634179 33.24139108 -13.7109375 34.7578125 C-14.19541351 35.47035187 -14.67988953 36.18289124 -15.17904663 36.91702271 C-15.63606964 37.58136322 -16.09309265 38.24570374 -16.56396484 38.93017578 C-16.96287933 39.51243927 -17.36179382 40.09470276 -17.77279663 40.6946106 C-21.16730206 45.16977298 -21.16730206 45.16977298 -24.46557617 45.73510742 C-27.75677779 45.18630962 -28.52583084 44.16094379 -30.55078125 41.55078125 C-31.16630859 40.76123047 -31.78183594 39.97167969 -32.41601562 39.15820312 C-33.04185547 38.32224609 -33.66769531 37.48628906 -34.3125 36.625 C-35.28026367 35.40006836 -35.28026367 35.40006836 -36.26757812 34.15039062 C-41.62841674 27.14442694 -41.62841674 27.14442694 -41 22.3125 C-39 20.3125 -39 20.3125 -36.1484375 19.875 C-33 20.3125 -33 20.3125 -30.6640625 22.5 C-29.99117188 23.428125 -29.31828125 24.35625 -28.625 25.3125 C-27.93664062 26.240625 -27.24828125 27.16875 -26.5390625 28.125 C-25.77722656 29.2078125 -25.77722656 29.2078125 -25 30.3125 C-21.87109209 27.37790187 -19.52800249 24.32677057 -17.1796875 20.7421875 C-16.47972656 19.68128906 -15.77976562 18.62039062 -15.05859375 17.52734375 C-14.33800781 16.42519531 -13.61742187 15.32304687 -12.875 14.1875 C-11.43788066 11.99540215 -9.99695379 9.80591324 -8.5546875 7.6171875 C-7.92030762 6.64765137 -7.28592773 5.67811523 -6.63232422 4.67919922 C-3.66862708 0.38214865 -3.66862708 0.38214865 0 0 Z " fill="#FAF9FF" transform="translate(403,170.6875)"/>
<path d="M0 0 C0.78186676 0.00359528 1.56373352 0.00719055 2.36929321 0.01089478 C3.18873917 0.01074875 4.00818512 0.01060272 4.85246277 0.01045227 C7.57416385 0.01115164 10.29579737 0.01894515 13.01748657 0.02676392 C14.89935773 0.02862801 16.78122938 0.03005195 18.6631012 0.03105164 C23.62631561 0.0348775 28.58950096 0.04470836 33.55270386 0.05575562 C38.61322639 0.06596827 43.67375359 0.07054894 48.73428345 0.07559204 C58.67114521 0.08633057 68.60798535 0.10340781 78.54483032 0.12442017 C78.54483032 2.76442017 78.54483032 5.40442017 78.54483032 8.12442017 C67.60986561 8.14754314 56.67490666 8.16533502 45.73992252 8.17623234 C40.66292014 8.18146127 35.58593443 8.18855909 30.50894165 8.19985962 C25.6136248 8.21068815 20.71832403 8.21669693 15.82299614 8.21929741 C13.95100082 8.22115172 12.07900642 8.22477245 10.2070179 8.23015022 C7.59442333 8.23736021 4.98189606 8.23841113 2.36929321 8.23794556 C1.58742645 8.24154083 0.80555969 8.24513611 0 8.24884033 C-5.34111752 8.23847233 -5.34111752 8.23847233 -6.45516968 7.12442017 C-6.58016968 4.12442017 -6.58016968 4.12442017 -6.45516968 1.12442017 C-4.68934605 -0.64140346 -2.35144969 0.00456456 0 0 Z " fill="#E6E6E6" transform="translate(245.45516967773438,186.87557983398438)"/>
<path d="M0 0 C0.66 0 1.32 0 2 0 C3.5078125 2.01171875 3.5078125 2.01171875 5.125 4.6875 C5.66382813 5.55761719 6.20265625 6.42773438 6.7578125 7.32421875 C8.0839471 10.18082945 8.12170265 11.90451953 8 15 C8.474375 15.61875 8.94875 16.2375 9.4375 16.875 C11.57616551 19.78358509 11.65985822 22.46252551 12 26 C14.49064888 26.68707555 16.37886292 27 19 27 C19.495 29.97 19.495 29.97 20 33 C5.48 33 -9.04 33 -24 33 C-19 28 -19 28 -16.125 25.8125 C-8.12265053 19.18491313 -3.99100743 9.32696973 0 0 Z " fill="#E4E4E4" transform="translate(435,209)"/>
<path d="M0 0 C0.66 0 1.32 0 2 0 C2 1.98 2 3.96 2 6 C39.62 6 77.24 6 116 6 C116 6.66 116 7.32 116 8 C47.36 8 -21.28 8 -92 8 C-92 7.34 -92 6.68 -92 6 C-62.3 6 -32.6 6 -2 6 C-1.34 4.02 -0.68 2.04 0 0 Z " fill="#CACACA" transform="translate(547,705)"/>
<path d="M0 0 C7.36894815 -0.05058145 14.73785178 -0.08568333 22.10693359 -0.10986328 C24.61541415 -0.11994011 27.12388292 -0.13360179 29.63232422 -0.15087891 C33.23147488 -0.17505337 36.83047067 -0.18646612 40.4296875 -0.1953125 C41.55680145 -0.20563507 42.68391541 -0.21595764 43.84518433 -0.22659302 C44.88611237 -0.22674408 45.92704041 -0.22689514 46.99951172 -0.22705078 C47.91884491 -0.231492 48.8381781 -0.23593323 49.78536987 -0.24050903 C52 0 52 0 54 2 C54.1875 5.0625 54.1875 5.0625 54 8 C51.25135856 10.74864144 42.37897137 9.68046118 38.52026367 9.83227539 C36.89724912 9.90176176 35.274731 9.98419621 33.65307617 10.08032227 C17.36562275 11.04037206 17.36562275 11.04037206 10.00415039 5.49780273 C6.92405114 3.19588912 3.62610965 2.20870322 0 1 C0 0.67 0 0.34 0 0 Z " fill="#E6E6E7" transform="translate(397,139)"/>
<path d="M0 0 C2.5625 1.5 2.5625 1.5 4 4 C4.31058001 6.75837161 4.18622842 9.20657373 4 12 C4.5775 12.2475 5.155 12.495 5.75 12.75 C8.3002997 14.16683317 10.01785701 15.87627537 12 18 C11.50628906 18.50789063 11.01257813 19.01578125 10.50390625 19.5390625 C5.46152645 24.90379731 5.46152645 24.90379731 4 32 C3.67 32 3.34 32 3 32 C3 31.154375 3 30.30875 3 29.4375 C1.34060423 23.73332703 -3.42037277 20.92612167 -8.05078125 17.46875 C-11.39911727 14.86217786 -12.80990837 13.60195682 -14.125 9.4375 C-13.98685527 5.63852004 -13.3444305 3.95224581 -11 1 C-7.53469791 -0.73265104 -3.78892965 -0.4643626 0 0 Z " fill="#FDB6B6" transform="translate(367,247)"/>
<path d="M0 0 C0.66 0.33 1.32 0.66 2 1 C2 1.99 2 2.98 2 4 C5.3 3.67 8.6 3.34 12 3 C12.73324757 13.72170887 11.16930006 21.20214487 7 31 C0.42877236 26.10978408 -4.10279873 20.10622361 -6 12 C-6.07522969 9.66787973 -6.09325876 7.3314689 -6 5 C-4.02 5 -2.04 5 0 5 C0 3.35 0 1.7 0 0 Z " fill="#FAB4B4" transform="translate(496,205)"/>
<path d="M0 0 C0.495 1.485 0.495 1.485 1 3 C-4.61 3 -10.22 3 -16 3 C-16 9.27 -16 15.54 -16 22 C-20.95 22 -25.9 22 -31 22 C-30.34 21.67 -29.68 21.34 -29 21 C-29.144375 20.3709375 -29.28875 19.741875 -29.4375 19.09375 C-29.623125 18.2378125 -29.80875 17.381875 -30 16.5 C-30.2784375 15.24703125 -30.2784375 15.24703125 -30.5625 13.96875 C-31 11 -31 11 -31 3 C-41.89 3 -52.78 3 -64 3 C-64 2.67 -64 2.34 -64 2 C-42.88 2 -21.76 2 0 2 C0 1.34 0 0.68 0 0 Z " fill="#EBB1B3" transform="translate(568,661)"/>
<path d="M0 0 C4.03252787 0.91415356 6.10672013 1.88972414 9 5 C13.94809433 15.98539182 13.94809433 15.98539182 12 22 C10.1875 23.375 10.1875 23.375 8 24 C3.48953427 23.29516908 0.93573488 20.48986081 -2.25 17.4375 C-2.80429687 16.91736328 -3.35859375 16.39722656 -3.9296875 15.86132812 C-5.29256828 14.58069015 -6.64711683 13.2911951 -8 12 C-7.41463247 8.33939179 -5.916761 6.45464836 -3.4375 3.75 C-2.79683594 3.04359375 -2.15617187 2.3371875 -1.49609375 1.609375 C-0.75552734 0.81273437 -0.75552734 0.81273437 0 0 Z " fill="#F9F9FB" transform="translate(350,224)"/>
<path d="M0 0 C0.66 0 1.32 0 2 0 C3.5078125 2.01171875 3.5078125 2.01171875 5.125 4.6875 C5.66382813 5.55761719 6.20265625 6.42773438 6.7578125 7.32421875 C8.09078041 10.19554899 8.07216057 11.89194137 8 15 C8.99 16.485 8.99 16.485 10 18 C10 19.98 10 21.96 10 24 C2.41 24 -5.18 24 -13 24 C-10 19 -10 19 -8.53515625 16.640625 C-5.21754995 11.25501478 -2.40280117 5.85152756 0 0 Z " fill="#FCFBFD" transform="translate(435,209)"/>
<path d="M0 0 C5.30688925 2.1227557 5.86317087 2.68418392 8.5625 7.3125 C10.32589952 10.29765438 12.02779024 13.03425993 14.21484375 15.73046875 C16 18 16 18 16 20 C16.99 20.33 17.98 20.66 19 21 C17.96875 21.5775 16.9375 22.155 15.875 22.75 C12.47343193 24.68979442 9.23300283 26.79209563 6 29 C4.99466333 27.37829621 3.99588093 25.75252763 3 24.125 C2.443125 23.22007812 1.88625 22.31515625 1.3125 21.3828125 C0 19 0 19 0 17 C-0.66 17 -1.32 17 -2 17 C-1.34 11.39 -0.68 5.78 0 0 Z " fill="#FBB5B7" transform="translate(437,192)"/>
<path d="M0 0 C-0.45020943 5.85272256 -3.03839227 10.08220119 -6 15 C-8.92497924 13.66838999 -11.1068492 12.18561693 -13.453125 9.99609375 C-14.071875 9.42052734 -14.690625 8.84496094 -15.328125 8.25195312 C-15.96234375 7.65318359 -16.5965625 7.05441406 -17.25 6.4375 C-17.8996875 5.83486328 -18.549375 5.23222656 -19.21875 4.61132812 C-22.73480202 1.32056935 -22.73480202 1.32056935 -24 0 C-24 -0.33 -24 -0.66 -24 -1 C-20.56341292 -1.22580354 -17.12582782 -1.42762697 -13.6875 -1.625 C-12.71103516 -1.68945312 -11.73457031 -1.75390625 -10.72851562 -1.8203125 C-9.79072266 -1.871875 -8.85292969 -1.9234375 -7.88671875 -1.9765625 C-7.02264404 -2.02893066 -6.15856934 -2.08129883 -5.26831055 -2.13525391 C-3 -2 -3 -2 0 0 Z " fill="#E4E3E3" transform="translate(502,234)"/>
<path d="M0 0 C3.68731106 0.6377274 5.20571091 1.8036216 8.00390625 4.26953125 C9.42703125 5.49929687 9.42703125 5.49929687 10.87890625 6.75390625 C11.38292969 7.20056641 11.88695312 7.64722656 12.40625 8.10742188 C14.65407471 10.09419115 16.93577886 12.04041405 19.21606445 13.98974609 C20.40672525 15.00854721 21.59537344 16.0297052 22.78198242 17.05322266 C27.43801637 21.0658235 32.18541586 24.94596081 36.9921875 28.77734375 C39.00390625 30.51953125 39.00390625 30.51953125 40.00390625 32.51953125 C39.34390625 33.50953125 38.68390625 34.49953125 38.00390625 35.51953125 C37.90142578 34.65328125 37.90142578 34.65328125 37.796875 33.76953125 C36.6925787 30.63615849 34.93771922 29.54004694 32.31640625 27.51953125 C30.82753906 26.34583984 30.82753906 26.34583984 29.30859375 25.1484375 C28.77331055 24.7270752 28.23802734 24.30571289 27.68652344 23.87158203 C24.70609181 21.476685 21.83129289 18.95970699 18.94140625 16.45703125 C17.18145262 14.94798556 15.41940713 13.44141956 13.65673828 11.93554688 C12.10972761 10.61019061 10.57020352 9.2761097 9.03125 7.94140625 C8.15597656 7.2040625 7.28070313 6.46671875 6.37890625 5.70703125 C5.62351562 5.06121094 4.868125 4.41539062 4.08984375 3.75 C2.1101856 2.3260754 2.1101856 2.3260754 -0.0625 2.61328125 C-2.37799159 3.69852175 -3.63999013 4.89843847 -5.30859375 6.83203125 C-5.84097656 7.42628906 -6.37335938 8.02054688 -6.921875 8.6328125 C-8.20626627 10.44493786 -8.20626627 10.44493786 -7.73339844 12.46264648 C-6.50266167 15.89607605 -3.61750485 17.9322281 -0.93359375 20.26953125 C-0.36576172 20.77613281 0.20207031 21.28273437 0.78710938 21.8046875 C2.18589275 23.05066261 3.59401358 24.28614098 5.00390625 25.51953125 C4.67390625 26.50953125 4.34390625 27.49953125 4.00390625 28.51953125 C0.40281548 26.90288955 -2.56962425 24.7475403 -5.68359375 22.33203125 C-6.65683594 21.59597656 -7.63007813 20.85992187 -8.6328125 20.1015625 C-11.64210601 16.81372281 -12.10375717 14.95330679 -11.99609375 10.51953125 C-10.3359375 7.6484375 -10.3359375 7.6484375 -7.93359375 5.08203125 C-7.15886719 4.21707031 -6.38414062 3.35210937 -5.5859375 2.4609375 C-2.99609375 0.51953125 -2.99609375 0.51953125 0 0 Z " fill="#4B4861" transform="translate(350.99609375,222.48046875)"/>
<path d="M0 0 C0 4.62 0 9.24 0 14 C-4.95 14 -9.9 14 -15 14 C-14.34 13.67 -13.68 13.34 -13 13 C-13.165 12.505 -13.33 12.01 -13.5 11.5 C-14.20688818 7.96555911 -14.06005155 4.60309299 -14 1 C-9.17893703 0.3350258 -4.91832841 0 0 0 Z " fill="#FBB5B5" transform="translate(458,669)"/>
<path d="M0 0 C3.51412948 -0.30646478 5.45817024 -0.33525717 8.5 1.546875 C9.325 2.27390625 10.15 3.0009375 11 3.75 C12.423125 4.97976562 12.423125 4.97976562 13.875 6.234375 C14.37902344 6.68103516 14.88304687 7.12769531 15.40234375 7.58789062 C17.65016846 9.5746599 19.93187261 11.5208828 22.2121582 13.47021484 C23.402819 14.48901596 24.59146719 15.51017395 25.77807617 16.53369141 C30.43411012 20.54629225 35.18150961 24.42642956 39.98828125 28.2578125 C42 30 42 30 43 32 C42.34 32.99 41.68 33.98 41 35 C40.89751953 34.13375 40.89751953 34.13375 40.79296875 33.25 C39.68867245 30.11662724 37.93381297 29.02051569 35.3125 27 C33.82363281 25.82630859 33.82363281 25.82630859 32.3046875 24.62890625 C31.7694043 24.20754395 31.23412109 23.78618164 30.68261719 23.35205078 C27.70219788 20.95716365 24.82715673 18.44042368 21.9375 15.9375 C19.62838922 13.95435545 17.31500589 11.97625799 15 10 C14.030625 9.17242187 13.06125 8.34484375 12.0625 7.4921875 C11.19625 6.77289063 10.33 6.05359375 9.4375 5.3125 C8.69371094 4.68988281 7.94992187 4.06726563 7.18359375 3.42578125 C4.76650106 1.84753647 2.84193826 1.37459643 0 1 C0 0.67 0 0.34 0 0 Z " fill="#525070" transform="translate(348,223)"/>
<path d="M0 0 C0.66 0 1.32 0 2 0 C2 2.64 2 5.28 2 8 C-7.57 8 -17.14 8 -27 8 C-27 7.67 -27 7.34 -27 7 C-19.08 6.67 -11.16 6.34 -3 6 C-2.01 4.02 -1.02 2.04 0 0 Z " fill="#D1D1D2" transform="translate(453,705)"/>
<path d="M0 0 C0.66 0 1.32 0 2 0 C2.67528223 1.57967807 3.33989694 3.16391903 4 4.75 C4.37125 5.63171875 4.7425 6.5134375 5.125 7.421875 C6 10 6 10 6 14 C3.69 14 1.38 14 -1 14 C-1 13.01 -1 12.02 -1 11 C0.32 11 1.64 11 3 11 C2.505 9.9275 2.01 8.855 1.5 7.75 C0.11346089 4.74583192 0 3.54065105 0 0 Z " fill="#7B73FF" transform="translate(357,231)"/>
<path d="M0 0 C3.63 0 7.26 0 11 0 C9 5 9 5 8 7 C4.2047869 5.50902342 2.38957269 3.24299151 0 0 Z " fill="#F5F5F5" transform="translate(488,242)"/>
<path d="M0 0 C6.75 0.75 6.75 0.75 9 3 C8.625 5.625 8.625 5.625 8 8 C7.34 8 6.68 8 6 8 C4.4921875 6.25 4.4921875 6.25 2.875 4 C2.33617187 3.2575 1.79734375 2.515 1.2421875 1.75 C0.62730469 0.88375 0.62730469 0.88375 0 0 Z " fill="#DDDDDE" transform="translate(546,186)"/>
<path d="M0 0 C1.60080151 4.00200378 0.29279692 7.04556236 -1 11 C-2.32 11 -3.64 11 -5 11 C-3.55049545 7.2089881 -1.84827434 3.6125362 0 0 Z " fill="#D0C6CA" transform="translate(513,235)"/>
</svg>
