<?xml version="1.0" encoding="UTF-8"?>
<svg version="1.1" xmlns="http://www.w3.org/2000/svg" width="992" height="699">
<path d="M0 0 C327.36 0 654.72 0 992 0 C992 230.67 992 461.34 992 699 C664.64 699 337.28 699 0 699 C0 468.33 0 237.66 0 0 Z " fill="#FEFEFE" transform="translate(0,0)"/>
<path d="M0 0 C5.76813523 0.60717213 10.70859168 2.77613599 16 5 C14.58820096 14.70379636 12.36902267 24.12325203 10 33.625 C9.46164558 35.79493757 8.92467362 37.96519665 8.39013672 40.13607788 C7.90617504 42.10005055 7.41807334 44.06300172 6.9296875 46.02587891 C5.81255313 50.65492938 4.90728984 55.32607133 4 60 C4.8533342 59.98667633 5.7066684 59.97335266 6.58586121 59.95962524 C14.63390658 59.83932481 22.68164937 59.74801377 30.73038769 59.68912697 C34.86825653 59.65783414 39.00538154 59.6154012 43.14282227 59.54736328 C47.13697409 59.48209391 51.13041129 59.44627854 55.12505531 59.43073654 C56.64776167 59.41966344 58.17042957 59.39803896 59.69283104 59.36561966 C71.67496187 59.12064676 71.67496187 59.12064676 75.07290649 61.37567139 C76.47387695 63.03662109 76.47387695 63.03662109 78 66 C76.76300241 53.63094583 75.01581895 41.43038791 72.875 29.1875 C72.45765545 26.7924839 72.04197846 24.39723492 71.63137817 22.00105286 C71.37943577 20.5311913 71.12371976 19.06196949 70.86349487 17.59355164 C70.25035321 14.02120156 69.86043349 10.62565695 70 7 C70.70125 6.74605469 71.4025 6.49210937 72.125 6.23046875 C73.07375 5.88628906 74.0225 5.54210937 75 5.1875 C76.50046875 4.64416016 76.50046875 4.64416016 78.03125 4.08984375 C80.53324692 3.17134751 83.01703022 2.21817292 85.5 1.25 C89 0 89 0 92 0 C94.06946982 11.43341354 94.86605265 22.90526509 95.69140625 34.48046875 C95.84260344 36.54547155 95.99430012 38.61043784 96.14646912 40.67536926 C96.5434515 46.07812111 96.93448286 51.48128613 97.32397461 56.88458252 C97.94910709 65.5409398 98.58396372 74.19659087 99.21772575 82.85231972 C99.43700628 85.85766506 99.65409353 88.86316208 99.8707428 91.86869812 C100.00567877 93.72651367 100.14064137 95.58432729 100.27563477 97.44213867 C100.33435257 98.26473175 100.39307037 99.08732483 100.4535675 99.93484497 C100.6255943 102.29082412 100.80957757 104.64543916 101 107 C101.07014753 107.90035791 101.14029507 108.80071583 101.21256828 109.72835732 C101.29013422 110.62356779 101.36770016 111.51877827 101.44761658 112.44111633 C101.54983977 113.66043083 101.54983977 113.66043083 101.65412807 114.90437794 C101.89239574 117.18460717 101.89239574 117.18460717 103.5625 119.5 C105.84789179 123.47459441 105.55934881 127.52520956 105 132 C103.61451845 135.02286884 102.33128575 136.66871425 100 139 C96.625 138.9375 96.625 138.9375 93 138 C90.7734375 135.44140625 90.7734375 135.44140625 89 133 C88.52601242 136.55203615 88.05230651 140.10410952 87.57910156 143.65625 C87.20714123 146.44806324 86.83404638 149.23972077 86.45996094 152.03125 C86.01559022 155.35082265 85.5764432 158.67105751 85.14013672 161.99169922 C84.96145891 163.34510961 84.78108479 164.698297 84.59912109 166.05126953 C84.33002397 168.05444193 84.06728516 170.05846522 83.8046875 172.0625 C83.57241455 173.81240234 83.57241455 173.81240234 83.33544922 175.59765625 C82.58949856 183.16357208 83.49370733 188.27879757 86.26953125 195.2421875 C86.61792557 196.14365005 86.96631989 197.04511261 87.32527161 197.97389221 C88.47668946 200.94533439 89.64451191 203.91003648 90.8125 206.875 C91.61812194 208.94496719 92.42262931 211.01536848 93.22607422 213.08618164 C94.92237596 217.45295663 96.62537567 221.81703403 98.33349609 226.17919922 C101.04769732 233.11429754 103.73895804 240.05816269 106.42578125 247.00390625 C110.94086372 258.67303156 115.46658424 270.33798563 120 282 C118.68 283.32 117.36 284.64 116 286 C118.29514052 292.50289815 122.18910105 297.39714473 126.875 302.375 C133.01165496 309.06622674 133.01165496 309.06622674 135.6875 312.375 C136.16574219 312.96023438 136.64398437 313.54546875 137.13671875 314.1484375 C138 316 138 316 137.921875 318.51171875 C136.73823567 321.70654186 135.40064282 322.59115748 132.5625 324.4375 C131.64597656 325.04078125 130.72945312 325.6440625 129.78515625 326.265625 C126.56980922 328.26788879 123.3222128 330.2054679 120.0546875 332.12109375 C115.01960763 335.21811858 110.13842019 338.5481836 105.24414062 341.86206055 C104.49583984 342.36648682 103.74753906 342.87091309 102.9765625 343.390625 C102.30705566 343.84469727 101.63754883 344.29876953 100.94775391 344.76660156 C96.28932155 347.71651385 92.80678481 348.2868258 87.3125 348.1875 C86.62349609 348.18685547 85.93449219 348.18621094 85.22460938 348.18554688 C80.14055525 348.14055525 80.14055525 348.14055525 79 347 C78.94290285 344.20223975 79.02134845 342.57086185 80 340 C81.53515625 338.42578125 81.53515625 338.42578125 83.5 336.75 C87.98606555 332.6357525 90.2809382 328.00074741 92.8125 322.5625 C93.18503906 321.76360352 93.55757812 320.96470703 93.94140625 320.14160156 C95.72183716 316.19852768 97.37602248 312.20658465 98.88671875 308.15234375 C99.15057373 307.44972412 99.41442871 306.74710449 99.6862793 306.02319336 C100.09013684 303.41870507 99.35462347 302.20431653 98 300 C96.35 300.33 94.7 300.66 93 301 C87.28790046 289.75687888 81.87792693 278.40149051 76.625 266.9375 C75.85239865 265.25638792 75.07952493 263.57540099 74.30639648 261.89453125 C73.10328671 259.27855247 71.90044608 256.66245242 70.69865417 254.04586792 C67.78609353 247.70473018 64.86267241 241.36867945 61.93359375 235.03515625 C61.52278564 234.14658432 61.11197754 233.25801239 60.6887207 232.34251404 C58.29060156 227.15543632 58.29060156 227.15543632 55.89117432 221.96896362 C54.79243042 219.59430934 53.69491338 217.21909156 52.59765625 214.84375 C52.11600258 213.80402794 52.11600258 213.80402794 51.62461853 212.74330139 C49.6773048 208.52440777 47.81268732 204.27853902 46 200 C47.58125269 222.63315418 50.01040548 245.1823856 52.35205078 267.74658203 C53.25900047 276.48968553 54.15303232 285.23410924 55.0479126 293.97845459 C55.46475981 298.04951812 55.88271722 302.12046752 56.30078125 306.19140625 C56.408209 307.23759377 56.408209 307.23759377 56.51780701 308.30491638 C56.67852055 309.86994605 56.83925721 311.43497334 57 313 C55.35 313 53.7 313 52 313 C52.38301721 318.30176454 52.81534073 323.49798516 54 328.6875 C55.52088432 335.69037779 55.6634675 342.86196856 56 350 C55.34 350.33 54.68 350.66 54 351 C155.97 351.33 257.94 351.66 363 352 C363 352.66 363 353.32 363 354 C122.1 354 -118.8 354 -367 354 C-367 353.34 -367 352.68 -367 352 C-246.22 351.67 -125.44 351.34 -1 351 C-2.98 349.68 -4.96 348.36 -7 347 C-8.9375 345.5 -8.9375 345.5 -10 344 C-9.875 341.9375 -9.875 341.9375 -9 340 C-5.80087355 337.86724903 -3.91056325 337.55531189 -0.1875 336.8125 C7.35744627 334.74398007 13.34628665 330.97054252 19.8125 326.625 C20.79774658 325.97635986 21.78299316 325.32771973 22.7980957 324.65942383 C23.71679443 324.02157959 24.63549316 323.38373535 25.58203125 322.7265625 C26.40936768 322.15502441 27.2367041 321.58348633 28.08911133 320.99462891 C30.54271129 318.43350565 30.71896583 316.47354552 31 313 C29.35 312.67 27.7 312.34 26 312 C25.9359346 311.41897018 25.8718692 310.83794037 25.80586243 310.23930359 C22.61165073 281.28082958 19.37055378 252.32917512 15.98042297 223.39297485 C14.59716984 211.57619584 13.23728507 199.75671091 11.875 187.9375 C11.63086796 185.82014875 11.38672755 183.70279846 11.14257812 181.58544922 C11.02444763 180.55983887 10.90631714 179.53422852 10.78460693 178.47753906 C10.54944632 176.43999267 10.31333358 174.40255592 10.07623291 172.36523438 C9.4353423 166.84622735 8.81664194 161.32564203 8.22363281 155.80126953 C8.0284758 154.01965172 8.0284758 154.01965172 7.82937622 152.20204163 C7.57874467 149.91107809 7.33406291 147.61945356 7.09616089 145.32713318 C6.98208893 144.29564651 6.86801697 143.26415985 6.75048828 142.20141602 C6.60512131 140.83703148 6.60512131 140.83703148 6.45681763 139.44508362 C5.99564948 136.97671416 5.23623413 135.17248425 4 133 C3.29875 133.804375 2.5975 134.60875 1.875 135.4375 C-1.30083247 138.26813329 -2.76997253 139.09000058 -7 139 C-9.34939689 137.15858081 -10.6699947 135.6600106 -12 133 C-12.14851844 131.06640414 -12.22130833 129.12657903 -12.25 127.1875 C-12.27578125 126.14980469 -12.3015625 125.11210937 -12.328125 124.04296875 C-12 121 -12 121 -10.54568481 118.94352722 C-8.30861193 114.68335409 -8.25083605 110.61237305 -7.94091797 105.8605957 C-7.86405762 104.84205002 -7.78719727 103.82350433 -7.70800781 102.77409363 C-7.45709641 99.40876699 -7.22464037 96.042429 -6.9921875 92.67578125 C-6.82068487 90.33025124 -6.6479888 87.98480821 -6.47415161 85.63945007 C-6.01926229 79.46108321 -5.57981516 73.28171348 -5.14379883 67.10198975 C-4.69953732 60.8388507 -4.24218157 54.57667166 -3.78515625 48.31445312 C-3.27070481 41.26533117 -2.75729595 34.21616857 -2.256073 27.16609192 C-2.14049545 25.54909393 -2.14049545 25.54909393 -2.02258301 23.89942932 C-1.88016114 21.90488771 -1.73879757 19.91027008 -1.5987854 17.91555786 C-1.17016105 11.9315528 -0.62891368 5.96627233 0 0 Z " fill="#302F43" transform="translate(508,265)"/>
<path d="M0 0 C0.74306396 0.00870117 1.48612793 0.01740234 2.25170898 0.02636719 C12.13403593 0.28242408 24.05159149 1.18653197 32.125 7.375 C36.9673222 13.02423283 38.00031837 18.62726601 38.4375 25.875 C38.51033203 26.7928125 38.58316406 27.710625 38.65820312 28.65625 C38.8331166 30.89514254 38.98826896 33.13350761 39.125 35.375 C40.22972656 35.34277344 41.33445312 35.31054688 42.47265625 35.27734375 C46.125 35.375 46.125 35.375 48.5625 36.9375 C50.72261052 40.30727241 50.6085611 42.43743106 50.125 46.375 C48.33462547 50.52113048 46.27113048 52.58462547 42.125 54.375 C38.4375 54.6875 38.4375 54.6875 35.125 54.375 C32.76546906 52.01546906 32.63358587 50.59604383 32.125 47.375 C31.073125 48.3340625 31.073125 48.3340625 30 49.3125 C26.89658767 51.53886102 24.87879861 52.02580943 21.125 52.375 C21.62 57.82 21.62 57.82 22.125 63.375 C23.86136719 63.30539063 23.86136719 63.30539063 25.6328125 63.234375 C27.17184906 63.19683752 28.7109137 63.16043949 30.25 63.125 C31.01054688 63.09148437 31.77109375 63.05796875 32.5546875 63.0234375 C37.92455433 62.93085359 40.8978072 63.77269657 45.125 67.375 C52.7653384 75.88833711 54.06551314 88.80581065 56.375 99.6875 C56.643125 100.89728516 56.91125 102.10707031 57.1875 103.35351562 C58.50150657 109.48442893 59.46778477 115.10359684 59.125 121.375 C58.135 121.87 58.135 121.87 57.125 122.375 C56.65976937 124.27033342 56.65976937 124.27033342 56.5 126.4375 C56.314375 128.3865625 56.314375 128.3865625 56.125 130.375 C55.795 130.375 55.465 130.375 55.125 130.375 C55.125 128.065 55.125 125.755 55.125 123.375 C54.23192139 123.69307617 54.23192139 123.69307617 53.32080078 124.01757812 C50.63167264 124.97329248 47.94086995 125.92420148 45.25 126.875 C44.31285156 127.20886719 43.37570312 127.54273438 42.41015625 127.88671875 C41.06630859 128.36044922 41.06630859 128.36044922 39.6953125 128.84375 C38.86789551 129.13701172 38.04047852 129.43027344 37.18798828 129.73242188 C35.125 130.375 35.125 130.375 33.125 130.375 C33.223004 130.93495163 33.321008 131.49490326 33.42198181 132.07182312 C34.45136854 137.96043688 35.47208573 143.85050883 36.48803711 149.74145508 C36.86705152 151.93258684 37.24819096 154.12335222 37.6315918 156.3137207 C41.71618698 179.66567619 41.71618698 179.66567619 42.125 190.375 C40.125 188.375 38.125 186.375 36.125 184.375 C33.97831715 184.25103129 31.82757613 184.1969928 29.67749023 184.16967773 C29.00434784 184.15977814 28.33120544 184.14987854 27.63766479 184.13967896 C25.40301075 184.10798162 23.16833542 184.08327426 20.93359375 184.05859375 C19.38802016 184.03803131 17.84245228 184.01703504 16.29689026 183.99562073 C12.22149268 183.94032663 8.14604375 183.89094987 4.07055664 183.84277344 C-0.0851704 183.79261183 -4.24082252 183.73689796 -8.39648438 183.68164062 C-16.5559263 183.57396936 -24.71543076 183.47254448 -32.875 183.375 C-32.3665489 176.94638595 -31.46052399 170.83484155 -29.87890625 164.5859375 C-29.68530014 163.7978067 -29.49169403 163.0096759 -29.29222107 162.19766235 C-28.68039795 159.71346875 -28.05914857 157.23175088 -27.4375 154.75 C-27.02476205 153.08088448 -26.61264807 151.41161453 -26.20117188 149.7421875 C-25.10056064 145.28441493 -23.98983136 140.82923457 -22.875 136.375 C-22.49728555 134.86410228 -22.1195989 133.3531976 -21.74194336 131.84228516 C-21.45585205 130.69808105 -21.16976074 129.55387695 -20.875 128.375 C-21.49246094 128.20484375 -22.10992188 128.0346875 -22.74609375 127.859375 C-28.71349716 126.15180751 -34.26153161 124.01080266 -39.875 121.375 C-39.44949691 112.121302 -38.07664757 103.2399906 -36.08349609 94.21679688 C-35.62314839 92.11655239 -35.18805582 90.01204634 -34.75390625 87.90625 C-30.88267927 69.72891924 -30.88267927 69.72891924 -23.71484375 64.828125 C-19.14081148 62.64092171 -14.39991102 62.93922219 -9.4375 63.125 C-8.05401367 63.15207031 -8.05401367 63.15207031 -6.64257812 63.1796875 C-4.38626403 63.22645049 -2.13049084 63.29818101 0.125 63.375 C0.125 60.405 0.125 57.435 0.125 54.375 C-1.6075 54.0965625 -1.6075 54.0965625 -3.375 53.8125 C-9.9471542 52.15486963 -14.29148536 47.84924162 -17.875 42.25 C-20.70005921 34.14171317 -19.30108826 25.9409449 -15.875 18.375 C-15.74990934 15.87769144 -15.74990934 15.87769144 -15.875 13.25 C-15.99572406 9.06278143 -15.74587728 6.64186035 -12.875 3.375 C-8.7176236 0.22825653 -5.05698499 -0.09867288 0 0 Z " fill="#E1E2E3" transform="translate(544.875,141.625)"/>
<path d="M0 0 C1.48155254 -0.00935994 1.48155254 -0.00935994 2.99303544 -0.01890898 C6.30029797 -0.03485448 9.6068251 -0.02222811 12.91409302 -0.00964355 C15.28620839 -0.01506403 17.6583204 -0.02218626 20.03042603 -0.03088379 C25.80358531 -0.04723572 31.57651123 -0.0448338 37.34967767 -0.03323323 C42.04341946 -0.02419294 46.73710298 -0.02297747 51.43085098 -0.02732849 C52.43362303 -0.02824789 52.43362303 -0.02824789 53.4566531 -0.02918586 C54.81483206 -0.03046479 56.173011 -0.03176165 57.53118993 -0.03307623 C70.26359298 -0.04447918 82.99588079 -0.03137376 95.72826494 -0.00987476 C106.64475758 0.0079878 117.56108003 0.00489858 128.47756958 -0.0135498 C141.1618712 -0.03497575 153.84607176 -0.04337194 166.53038895 -0.03110075 C167.88413181 -0.02982659 169.23787469 -0.02856911 170.59161758 -0.02732849 C171.25763665 -0.02671139 171.92365571 -0.02609429 172.60985716 -0.02545848 C177.29499213 -0.02201013 181.98006282 -0.02782297 186.66518784 -0.0372467 C192.97717696 -0.0488097 199.28884508 -0.04077065 205.60079956 -0.01766968 C207.91629631 -0.01238462 210.23182011 -0.01389284 212.54730606 -0.02272034 C215.71061188 -0.0336672 218.87289215 -0.01992135 222.03613281 0 C223.40745387 -0.01338433 223.40745387 -0.01338433 224.80647838 -0.02703905 C230.71508169 0.04502814 235.21277789 1.15657412 240.14505005 4.50793457 C243.50570039 8.03661742 244.40422127 10.75725581 244.58255005 15.50793457 C244.32428315 21.24145975 242.91611253 24.86970177 238.64505005 28.82043457 C235.35365636 31.04212531 232.87844567 31.63269636 228.99764538 31.64215565 C227.72453826 31.64884241 227.72453826 31.64884241 226.42571181 31.65566427 C225.49304262 31.6554799 224.56037342 31.65529554 223.59944153 31.65510559 C222.60880843 31.65878228 221.61817532 31.66245897 220.59752303 31.66624707 C217.26269287 31.67730095 213.92789385 31.68113062 210.5930481 31.68493652 C208.20828146 31.6911998 205.8235158 31.69784648 203.43875122 31.70484924 C196.27195155 31.72408713 189.10515129 31.73467826 181.938333 31.74357703 C178.563495 31.74796059 175.18865856 31.75332717 171.81382179 31.7585659 C160.59579513 31.77557634 149.37776944 31.79007113 138.15973186 31.79731464 C135.24899481 31.79922454 132.33825777 31.80114487 129.42752075 31.80310059 C128.34234722 31.8038262 128.34234722 31.8038262 127.23525099 31.80456647 C115.51240054 31.81286914 103.78965206 31.83821083 92.06684615 31.87068126 C80.03208808 31.90374414 67.99738185 31.92176264 55.96257812 31.92495888 C49.20510236 31.92712455 42.44777536 31.93588147 35.69034386 31.96142006 C29.33493927 31.98464186 22.97980272 31.98895762 16.62436676 31.97865868 C14.29027988 31.9781618 11.95618006 31.98452665 9.62213326 31.99821472 C6.43830148 32.01584348 3.25544107 32.00887136 0.0716095 31.99568176 C-0.85436753 32.00665101 -1.78034456 32.01762025 -2.7343815 32.0289219 C-8.41963087 31.97196799 -11.47113669 31.19189883 -15.85494995 27.50793457 C-18.95003803 24.01696313 -20.66038187 20.59751581 -21.47994995 16.00793457 C-20.44074481 10.18838576 -17.8788281 6.20462883 -13.36590385 2.42127228 C-8.74073579 -0.0992702 -5.18138553 -0.05032562 0 0 Z " fill="#6C63FF" transform="translate(144.85494995117188,332.4920654296875)"/>
<path d="M0 0 C1.65645461 -0.00542586 3.31290439 -0.01255112 4.96934509 -0.02124023 C9.45065748 -0.03941858 13.93160002 -0.03242962 18.41291857 -0.01972389 C23.1093038 -0.00957109 27.80565815 -0.01899558 32.50204468 -0.02526855 C40.38537258 -0.03253689 48.26855037 -0.02297714 56.15185547 -0.00390625 C65.26107025 0.01787604 74.36992709 0.01079803 83.47913325 -0.01121187 C91.30865401 -0.02937106 99.13806712 -0.03192211 106.96760213 -0.0214572 C111.64025133 -0.01522706 116.3127323 -0.01437373 120.98537064 -0.02760315 C125.37681637 -0.03916913 129.76780088 -0.03112243 134.15919685 -0.00802612 C135.76923291 -0.00274366 137.37930788 -0.00424493 138.98932838 -0.01307678 C141.18999112 -0.02403454 143.3891828 -0.0102686 145.5897522 0.00964355 C146.82009501 0.01115166 148.05043781 0.01265976 149.31806374 0.01421356 C154.4795245 0.7885452 157.54836231 3.2709814 160.98583984 7.08007812 C163.85416886 11.22322003 164.00887818 14.5683877 163.67333984 19.51757812 C161.63016145 25.19307366 158.07586543 28.81631533 152.67333984 31.51757812 C150.44453469 31.62073754 148.21256249 31.65712962 145.98138428 31.66474915 C145.28562137 31.66842583 144.58985846 31.67210252 143.87301183 31.67589062 C141.53007994 31.68694715 139.18719238 31.69077463 136.84423828 31.69458008 C135.1689693 31.70084327 133.49370172 31.70748994 131.81843567 31.7144928 C127.25838415 31.73191647 122.69834313 31.74245839 118.13826656 31.75069833 C115.29020696 31.75584583 112.44215062 31.76192169 109.59409332 31.76820946 C100.68590269 31.78726578 91.77772037 31.8014957 82.86951327 31.80982143 C72.58156402 31.81959497 62.29382986 31.84591567 52.00595641 31.88632232 C44.05769089 31.91647008 36.10948707 31.93128905 28.16116548 31.93460244 C23.4123775 31.93695456 18.66381919 31.94593584 13.91509247 31.97106361 C9.44663153 31.99432579 4.97855177 31.99858509 0.51004601 31.98830223 C-1.12903167 31.9878063 -2.76812799 31.99414369 -4.40714836 32.00785828 C-6.64747903 32.02555368 -8.88643825 32.01848407 -11.12677002 32.00532532 C-12.37965443 32.00771367 -13.63253883 32.01010202 -14.92338943 32.01256275 C-20.13518331 31.25453964 -23.18596049 28.74833303 -26.70166016 24.95507812 C-29.00808091 20.07611115 -29.08572973 15.82315815 -28.32666016 10.51757812 C-26.2867063 5.84268387 -23.61237213 3.54763652 -19.02135086 1.35243225 C-12.92151153 -0.53738613 -6.3324436 -0.03483248 0 0 Z " fill="#E2E3E4" transform="translate(149.32666015625,79.482421875)"/>
<path d="M0 0 C0.74306396 0.00870117 1.48612793 0.01740234 2.25170898 0.02636719 C12.13403593 0.28242408 24.05159149 1.18653197 32.125 7.375 C36.9673222 13.02423283 38.00031837 18.62726601 38.4375 25.875 C38.51033203 26.7928125 38.58316406 27.710625 38.65820312 28.65625 C38.8331166 30.89514254 38.98826896 33.13350761 39.125 35.375 C40.22972656 35.34277344 41.33445312 35.31054688 42.47265625 35.27734375 C46.125 35.375 46.125 35.375 48.5625 36.9375 C50.72261052 40.30727241 50.6085611 42.43743106 50.125 46.375 C48.33462547 50.52113048 46.27113048 52.58462547 42.125 54.375 C38.4375 54.6875 38.4375 54.6875 35.125 54.375 C32.76546906 52.01546906 32.63358587 50.59604383 32.125 47.375 C31.073125 48.3340625 31.073125 48.3340625 30 49.3125 C26.89658767 51.53886102 24.87879861 52.02580943 21.125 52.375 C21.125 56.005 21.125 59.635 21.125 63.375 C14.195 63.375 7.265 63.375 0.125 63.375 C0.125 60.405 0.125 57.435 0.125 54.375 C-1.6075 54.0965625 -1.6075 54.0965625 -3.375 53.8125 C-9.9471542 52.15486963 -14.29148536 47.84924162 -17.875 42.25 C-20.70005921 34.14171317 -19.30108826 25.9409449 -15.875 18.375 C-15.74990934 15.87769144 -15.74990934 15.87769144 -15.875 13.25 C-15.99572406 9.06278143 -15.74587728 6.64186035 -12.875 3.375 C-8.7176236 0.22825653 -5.05698499 -0.09867288 0 0 Z " fill="#323045" transform="translate(544.875,141.625)"/>
<path d="M0 0 C2.06946982 11.43341354 2.86605265 22.90526509 3.69140625 34.48046875 C3.84260344 36.54547155 3.99430012 38.61043784 4.14646912 40.67536926 C4.5434515 46.07812111 4.93448286 51.48128613 5.32397461 56.88458252 C5.94910709 65.5409398 6.58396372 74.19659087 7.21772575 82.85231972 C7.43700628 85.85766506 7.65409353 88.86316208 7.8707428 91.86869812 C8.00567877 93.72651367 8.14064137 95.58432729 8.27563477 97.44213867 C8.33435257 98.26473175 8.39307037 99.08732483 8.4535675 99.93484497 C8.6255943 102.29082412 8.80957757 104.64543916 9 107 C9.1052213 108.35053687 9.1052213 108.35053687 9.21256828 109.72835732 C9.29013422 110.62356779 9.36770016 111.51877827 9.44761658 112.44111633 C9.51576537 113.25399266 9.58391417 114.06686899 9.65412807 114.90437794 C9.89239574 117.18460717 9.89239574 117.18460717 11.5625 119.5 C13.84789179 123.47459441 13.55934881 127.52520956 13 132 C11.61451845 135.02286884 10.33128575 136.66871425 8 139 C4.625 138.9375 4.625 138.9375 1 138 C-1.4375 135.4375 -1.4375 135.4375 -3 133 C-3.99 134.98 -3.99 134.98 -5 137 C-4.99887207 136.37585205 -4.99774414 135.7517041 -4.99658203 135.10864258 C-5.05967782 119.86003521 -6.44836842 105.21093589 -8.9375 90.1875 C-9.07069641 89.37600494 -9.20389282 88.56450989 -9.34112549 87.72842407 C-9.72802609 85.39422623 -10.12475137 83.0620076 -10.52734375 80.73046875 C-10.70400322 79.69132828 -10.70400322 79.69132828 -10.88423157 78.63119507 C-11.42360272 75.60962793 -12.07775733 72.77133651 -13.06689453 69.86254883 C-14.02312289 66.92906439 -14.28024402 64.54198705 -14.40234375 61.46875 C-15.03339423 51.70480409 -16.88540449 42.12865654 -18.5625 32.5 C-19.05796454 29.64342391 -19.55161974 26.78658338 -20.04026794 23.92883301 C-20.34218628 22.16404407 -20.64802789 20.39992038 -20.95838928 18.63659668 C-21.63121503 14.71252626 -22.19439729 10.99961009 -22 7 C-20.948125 6.61908203 -20.948125 6.61908203 -19.875 6.23046875 C-18.451875 5.71419922 -18.451875 5.71419922 -17 5.1875 C-15.49953125 4.64416016 -15.49953125 4.64416016 -13.96875 4.08984375 C-11.46675308 3.17134751 -8.98296978 2.21817292 -6.5 1.25 C-3 0 -3 0 0 0 Z " fill="#9F636C" transform="translate(600,265)"/>
<path d="M0 0 C4 5 4 5 5.9453125 7.9765625 C8.04205642 11.0618853 10.32019963 13.66102204 12.875 16.375 C19.01165496 23.06622674 19.01165496 23.06622674 21.6875 26.375 C22.16574219 26.96023438 22.64398437 27.54546875 23.13671875 28.1484375 C24 30 24 30 23.921875 32.51171875 C22.73823567 35.70654186 21.40064282 36.59115748 18.5625 38.4375 C17.64597656 39.04078125 16.72945312 39.6440625 15.78515625 40.265625 C12.56980922 42.26788879 9.3222128 44.2054679 6.0546875 46.12109375 C1.01960763 49.21811858 -3.86157981 52.5481836 -8.75585938 55.86206055 C-9.50416016 56.36648682 -10.25246094 56.87091309 -11.0234375 57.390625 C-11.69294434 57.84469727 -12.36245117 58.29876953 -13.05224609 58.76660156 C-17.71067845 61.71651385 -21.19321519 62.2868258 -26.6875 62.1875 C-27.72100586 62.1865332 -27.72100586 62.1865332 -28.77539062 62.18554688 C-33.85944475 62.14055525 -33.85944475 62.14055525 -35 61 C-35.05709715 58.20223975 -34.97865155 56.57086185 -34 54 C-32.46484375 52.42578125 -32.46484375 52.42578125 -30.5 50.75 C-26.01393445 46.6357525 -23.7190618 42.00074741 -21.1875 36.5625 C-20.81496094 35.76360352 -20.44242188 34.96470703 -20.05859375 34.14160156 C-18.9914628 31.77825449 -17.9851993 29.39855289 -17 27 C-16.6592041 26.21093262 -16.3184082 25.42186523 -15.96728516 24.60888672 C-15.66483887 23.83947754 -15.36239258 23.07006836 -15.05078125 22.27734375 C-14.77532471 21.59792725 -14.49986816 20.91851074 -14.21606445 20.21850586 C-13.7254853 17.21951103 -13.7254853 17.21951103 -17 12 C-11.39 8.04 -5.78 4.08 0 0 Z " fill="#313045" transform="translate(622,551)"/>
<path d="M0 0 C5.76813523 0.60717213 10.70859168 2.77613599 16 5 C14.58820096 14.70379636 12.36902267 24.12325203 10 33.625 C9.28883237 36.49149337 8.58048368 39.35866497 7.875 42.2265625 C7.70790527 42.90527405 7.54081055 43.5839856 7.36865234 44.28326416 C6.09687201 49.4954865 4.97177412 54.72396979 4 60 C5.32 60 6.64 60 8 60 C8.19142918 67.3141901 7.51038391 74.40472058 6.71716309 81.67224121 C4.87931036 98.72739055 3.71154616 115.91832669 6 133 C5.01 133.33 4.02 133.66 3 134 C2.1028125 134.99 2.1028125 134.99 1.1875 136 C-1.58837578 138.53794357 -3.25554311 139 -7 139 C-9.34939689 137.15858081 -10.6699947 135.6600106 -12 133 C-12.14851844 131.06640414 -12.22130833 129.12657903 -12.25 127.1875 C-12.27578125 126.14980469 -12.3015625 125.11210937 -12.328125 124.04296875 C-12 121 -12 121 -10.54568481 118.94352722 C-8.30861193 114.68335409 -8.25083605 110.61237305 -7.94091797 105.8605957 C-7.86405762 104.84205002 -7.78719727 103.82350433 -7.70800781 102.77409363 C-7.45709641 99.40876699 -7.22464037 96.042429 -6.9921875 92.67578125 C-6.82068487 90.33025124 -6.6479888 87.98480821 -6.47415161 85.63945007 C-6.01926229 79.46108321 -5.57981516 73.28171348 -5.14379883 67.10198975 C-4.69953732 60.8388507 -4.24218157 54.57667166 -3.78515625 48.31445312 C-3.27070481 41.26533117 -2.75729595 34.21616857 -2.256073 27.16609192 C-2.1790213 26.08809326 -2.1019696 25.0100946 -2.02258301 23.89942932 C-1.88016114 21.90488771 -1.73879757 19.91027008 -1.5987854 17.91555786 C-1.17016105 11.9315528 -0.62891368 5.96627233 0 0 Z " fill="#A0646D" transform="translate(508,265)"/>
<path d="M0 0 C1.49520682 0.09225374 2.9941389 0.13067461 4.4921875 0.1328125 C5.79736328 0.13474609 5.79736328 0.13474609 7.12890625 0.13671875 C8.48822266 0.13091797 8.48822266 0.13091797 9.875 0.125 C10.77347656 0.12886719 11.67195313 0.13273438 12.59765625 0.13671875 C13.47035156 0.13542969 14.34304688 0.13414062 15.2421875 0.1328125 C16.0347998 0.13168457 16.82741211 0.13055664 17.64404297 0.12939453 C20.00484963 0.06299816 20.00484963 0.06299816 22.28278226 -0.50137275 C25.19729301 -1.03620456 27.86886441 -1.1174279 30.83144093 -1.10743046 C32.00485029 -1.10593811 33.17825966 -1.10444576 34.38722688 -1.10290819 C35.6722394 -1.0961044 36.95725193 -1.08930061 38.28120422 -1.08229065 C39.66320173 -1.07859558 41.04520049 -1.07534663 42.42720002 -1.07250541 C46.22405348 -1.06340801 50.02085895 -1.04797809 53.81768668 -1.03152263 C57.91237725 -1.01488269 62.00708371 -1.00410343 66.10179138 -0.99261475 C73.19590432 -0.97190726 80.28999665 -0.94748118 87.38408852 -0.92053413 C97.64097254 -0.88157853 107.89786875 -0.84822376 118.1547766 -0.81623887 C134.79566307 -0.76419411 151.43653093 -0.70761558 168.07739258 -0.64819336 C184.24307531 -0.59047763 200.40876305 -0.5348925 216.57446289 -0.48217773 C217.5708058 -0.47892802 218.5671487 -0.4756783 219.59368382 -0.4723301 C224.59201033 -0.45604048 229.59033698 -0.43979281 234.5886637 -0.42356598 C276.05913211 -0.28887987 317.52957295 -0.14683903 359 0 C359 0.66 359 1.32 359 2 C118.1 2 -122.8 2 -371 2 C-371 1.34 -371 0.68 -371 0 C-324.17005751 -0.15031171 -277.34010127 -0.29534083 -230.51012052 -0.4332476 C-224.98615771 -0.44951933 -219.46219503 -0.46583496 -213.93823242 -0.48217773 C-212.83847312 -0.48543066 -211.73871381 -0.48868358 -210.60562847 -0.49203508 C-192.77943236 -0.54486714 -174.95324919 -0.6012592 -157.12706824 -0.6589582 C-138.84685348 -0.71804789 -120.56663009 -0.77333207 -102.28639299 -0.82505554 C-90.99912483 -0.85711337 -79.71187404 -0.89216845 -68.42462716 -0.93101191 C-60.69310007 -0.95733501 -52.96156776 -0.97997435 -45.23002096 -0.99967117 C-40.76392335 -1.01115917 -36.29784643 -1.02431506 -31.83176804 -1.04183006 C-27.74773081 -1.05781108 -23.66370822 -1.06919446 -19.5796471 -1.07683109 C-18.09776776 -1.08042974 -16.61589146 -1.08575471 -15.13402512 -1.09292836 C-13.12814521 -1.10239296 -11.12223676 -1.10510606 -9.11633587 -1.10743046 C-7.99957838 -1.11084794 -6.88282089 -1.11426542 -5.73222226 -1.11778647 C-3 -1 -3 -1 0 0 Z " fill="#3F3D58" transform="translate(512,617)"/>
<path d="M0 0 C0.98941054 -0.00779995 1.97882109 -0.01559991 2.99821377 -0.02363622 C6.29940436 -0.04351172 9.59943649 -0.02780835 12.90063477 -0.01205444 C15.2730476 -0.01883249 17.64545516 -0.02773667 20.01785278 -0.03860474 C26.45172675 -0.06138188 32.88519944 -0.05256787 39.31908035 -0.03670931 C43.33943453 -0.02781131 47.35973756 -0.02950014 51.38009644 -0.03416061 C52.04834015 -0.03492678 52.71658387 -0.03569294 53.4050774 -0.03648233 C54.7627733 -0.03808102 56.12046918 -0.03970209 57.47816503 -0.04134528 C70.19724921 -0.05558925 82.91615295 -0.03923141 95.63520753 -0.01234345 C106.53920329 0.00999418 117.44293287 0.00611367 128.34692383 -0.01693726 C141.02173396 -0.04371929 153.69638611 -0.05421608 166.37122059 -0.03887594 C167.7238089 -0.03728326 169.07639724 -0.0357114 170.4289856 -0.03416061 C171.09441468 -0.03338924 171.75984377 -0.03261786 172.44543737 -0.03182311 C177.12560877 -0.02751328 181.80564939 -0.03502248 186.48580933 -0.04655838 C192.78968412 -0.06101139 199.09305669 -0.05096519 205.39687729 -0.0220871 C207.70914756 -0.01548088 210.02146016 -0.01736594 212.33371353 -0.02840042 C215.49273852 -0.04208491 218.650159 -0.02490316 221.80908203 0 C222.72193183 -0.01115361 223.63478163 -0.02230722 224.57529354 -0.03379881 C230.81469701 0.06146603 235.10716557 1.57039892 239.90454102 5.63491821 C243.49542277 9.89485134 244.57029196 13.94317466 244.28735352 19.49819946 C243.20291 25.55116477 238.56947432 29.16103171 233.90454102 32.63491821 C231.18318125 33.54203814 229.60578284 33.7622276 226.80957508 33.76913929 C225.97252059 33.77359713 225.1354661 33.77805498 224.27304631 33.78264791 C223.35341421 33.78246355 222.4337821 33.78227918 221.48628235 33.78208923 C220.50931103 33.78576592 219.53233972 33.78944261 218.52576321 33.79323071 C215.23705954 33.80428411 211.94838745 33.80811421 208.65966797 33.81192017 C206.30770263 33.81818356 203.95573828 33.82483025 201.60377502 33.83183289 C194.53485105 33.85107187 187.46593062 33.86166291 180.39698699 33.87056068 C177.06723566 33.8749448 173.7374859 33.88031256 170.40773582 33.88554955 C159.33726106 33.90256155 148.26678729 33.91705526 137.19630146 33.92429829 C134.32373872 33.92620815 131.45117599 33.92812849 128.57861328 33.93008423 C127.86466072 33.93056797 127.15070817 33.93105171 126.41512068 33.93155011 C114.85205054 33.9398487 103.2890839 33.96518281 91.72605894 33.99766491 C79.85175295 34.03074918 67.97749953 34.0487483 56.10314721 34.05194253 C49.43727621 34.05410641 42.77153588 34.06328101 36.10570717 34.0884037 C29.83401447 34.1116587 23.56259337 34.1159278 17.29086876 34.10564232 C14.98987297 34.10514623 12.68886393 34.1114881 10.38790894 34.12519836 C7.24418596 34.14288102 4.10144149 34.13582826 0.9577179 34.12266541 C0.0492394 34.13363465 -0.8592391 34.1446039 -1.79524726 34.15590554 C-8.38009645 34.08943768 -13.8454783 32.69309989 -18.74588603 28.08189183 C-22.46242113 23.92501268 -22.79504608 19.64192257 -22.50561523 14.21694946 C-21.78732176 9.69512101 -19.97755504 7.15942334 -16.45623684 4.3071419 C-10.93780054 0.51340303 -6.60166413 -0.0806621 0 0 Z M-17.90795898 8.69741821 C-20.33777321 12.66185195 -20.40440201 16.07800854 -20.09545898 20.63491821 C-18.34148469 25.34295449 -16.36749722 27.99569396 -12.09545898 30.63491821 C-8.80573365 31.21935179 -5.56069079 31.17036176 -2.22668457 31.13612366 C-1.22546995 31.14165805 -0.22425532 31.14719245 0.80729914 31.15289456 C4.16613658 31.16652048 7.52423347 31.15152078 10.88305664 31.1366272 C13.28944719 31.14040965 15.69583556 31.14590908 18.10221863 31.15299988 C23.96207012 31.16552875 29.82172508 31.15937679 35.6815542 31.1443243 C42.50570933 31.12746209 49.32981079 31.13067472 56.15398031 31.13441838 C68.33015478 31.14029682 80.50622583 31.12612604 92.68237305 31.10147095 C104.49719113 31.0775502 116.31187104 31.07046669 128.12670898 31.08096313 C140.99261962 31.09237289 153.85846634 31.09430171 166.7243762 31.07986504 C168.09633604 31.0783392 169.46829589 31.07681885 170.84025574 31.07530403 C171.51528425 31.07454622 172.19031277 31.0737884 172.8857967 31.07300762 C177.6424461 31.06826523 182.39906697 31.07011591 187.15571594 31.07436943 C193.55791006 31.07981103 199.95995514 31.06905258 206.36211586 31.04741478 C208.71434699 31.04184173 211.06659651 31.04138633 213.41882896 31.04636765 C216.62468883 31.05230615 219.82995985 31.03984231 223.0357666 31.02259827 C223.97107413 31.02860831 224.90638165 31.03461836 225.87003183 31.04081053 C230.69459897 30.99347949 234.02049386 30.82219255 237.90454102 27.63491821 C241.15481929 23.44376991 242.23721793 20.82482799 241.90454102 15.50991821 C241.24421367 11.20144571 240.23715608 8.60725057 236.90454102 5.63491821 C231.5990965 2.27006111 227.15236728 2.20736398 221.07409668 2.24723816 C220.08906741 2.24185262 219.10403813 2.23646708 218.08915949 2.23091835 C214.7911645 2.21662006 211.49356981 2.22374724 208.19555664 2.23086548 C205.83004941 2.22516295 203.46454493 2.21819915 201.0990448 2.21006775 C194.67560876 2.1921096 188.25230913 2.19330962 181.82885551 2.19901013 C177.81691144 2.20207129 173.80498688 2.19911437 169.79304504 2.19453239 C168.79356987 2.19340976 168.79356987 2.19340976 167.77390328 2.19226445 C166.42022986 2.19073295 165.06655646 2.18919461 163.71288306 2.18764948 C151.02396155 2.17392751 138.33510174 2.17936026 125.64618164 2.19083469 C114.03990692 2.20076953 102.43379156 2.18782162 90.82754141 2.1639005 C78.90567506 2.13951424 66.98388296 2.12990028 55.06199217 2.13655323 C48.37052471 2.14004616 41.67919788 2.1374739 34.98774719 2.1203022 C28.6971173 2.10486382 22.4067924 2.10875438 16.1161747 2.12760735 C13.80628328 2.13130162 11.49636942 2.1281605 9.18649864 2.11772156 C6.03564013 2.10456799 2.88579969 2.11600989 -0.26501465 2.13371277 C-1.18116342 2.12410776 -2.09731219 2.11450276 -3.04122305 2.10460669 C-9.52242705 2.17963923 -13.49227622 3.67267575 -17.90795898 8.69741821 Z " fill="#E8E8E9" transform="translate(146.095458984375,268.3650817871094)"/>
<path d="M0 0 C4.6152576 2.42908295 6.57624055 7.68576274 8.875 12.1875 C10.20426128 14.43526967 10.20426128 14.43526967 12.625 15 C14.74777219 15.19297929 16.87352509 15.35334656 19 15.5 C22.375 16.25 22.375 16.25 24.3125 18.25 C26.50610649 24.44371245 25.45723008 30.89189828 24.375 37.25 C26.025 37.25 27.675 37.25 29.375 37.25 C28.385 37.58 27.395 37.91 26.375 38.25 C26.375 41.88 26.375 45.51 26.375 49.25 C19.445 49.25 12.515 49.25 5.375 49.25 C5.375 46.28 5.375 43.31 5.375 40.25 C3.6425 39.9715625 3.6425 39.9715625 1.875 39.6875 C-4.6971542 38.02986963 -9.04148536 33.72424162 -12.625 28.125 C-14.66562306 22.22986672 -14.7032741 14.95335809 -12.96875 8.99609375 C-10.34538694 3.76067522 -5.83174735 0.55540451 0 0 Z " fill="#9E616A" transform="translate(539.625,155.75)"/>
<path d="M0 0 C1.27534564 -0.00668677 1.27534564 -0.00668677 2.57645583 -0.01350862 C3.51592881 -0.01332426 4.4554018 -0.01313989 5.42334366 -0.01294994 C6.41720589 -0.01662663 7.41106812 -0.02030332 8.43504739 -0.02409142 C11.78680313 -0.03516121 15.13852791 -0.03897767 18.49029922 -0.04278088 C20.88477045 -0.04904301 23.2792407 -0.05568959 25.67370987 -0.0626936 C32.87504077 -0.0819455 40.07636913 -0.09252545 47.27771795 -0.10142139 C50.66799917 -0.10580318 54.05827882 -0.11117029 57.44855881 -0.11641026 C68.71715724 -0.13342371 79.9857547 -0.14791804 91.25436401 -0.155159 C94.17936326 -0.15706893 97.10436251 -0.15898926 100.02936172 -0.16094494 C101.11986943 -0.16167055 101.11986943 -0.16167055 102.2324076 -0.16241082 C114.01028689 -0.17071169 125.78806464 -0.19604901 137.56589958 -0.22852562 C149.65486658 -0.26158866 161.74378197 -0.27960709 173.83279443 -0.28280324 C180.62158391 -0.2849691 187.41022534 -0.29372862 194.19897079 -0.31926441 C200.58473046 -0.34248655 206.97022336 -0.34680183 213.35601425 -0.33650303 C215.70138815 -0.33600614 218.04677491 -0.34237133 220.39210892 -0.35605907 C223.59131939 -0.37368722 226.78956309 -0.36671596 229.98877335 -0.35352612 C231.38459849 -0.36997998 231.38459849 -0.36997998 232.80862212 -0.38676625 C238.36743224 -0.33134428 241.55371971 0.41920468 245.96002579 4.13422108 C249.8359916 8.32445439 250.74918984 10.89936006 251.27252579 16.44672108 C250.78577785 22.19034675 248.58506042 25.62809142 244.39752579 29.50922108 C241.13396278 31.68492975 238.64699687 32.25909602 234.81262112 32.26844215 C233.539514 32.27512892 233.539514 32.27512892 232.24068755 32.28195077 C231.30801836 32.28176641 230.37534916 32.28158205 229.41441727 32.2813921 C228.42378416 32.28506879 227.43315106 32.28874547 226.41249877 32.29253358 C223.07766861 32.30358745 219.74286959 32.30741713 216.40802383 32.31122303 C214.0232572 32.3174863 211.63849154 32.32413298 209.25372696 32.33113575 C202.08692729 32.35037364 194.92012702 32.36096476 187.75330874 32.36986354 C184.37847074 32.3742471 181.0036343 32.37961368 177.62879753 32.38485241 C166.41077087 32.40186285 155.19274518 32.41635764 143.9747076 32.42360115 C141.06397055 32.42551104 138.15323351 32.42743138 135.24249649 32.42938709 C134.15732296 32.4301127 134.15732296 32.4301127 133.05022673 32.43085297 C121.32737628 32.43915564 109.6046278 32.46449734 97.88182189 32.49696777 C85.84706382 32.53003065 73.81235759 32.54804915 61.77755386 32.55124539 C55.0200781 32.55341106 48.2627511 32.56216797 41.5053196 32.58770657 C35.14991501 32.61092836 28.79477846 32.61524413 22.4393425 32.60494518 C20.10525561 32.60444831 17.77115579 32.61081315 15.43710899 32.62450123 C12.25327722 32.64212999 9.07041681 32.63515787 5.88658524 32.62196827 C4.96060821 32.63293752 4.03463118 32.64390676 3.08059424 32.65520841 C-2.46524537 32.59965109 -5.64544133 31.84201195 -10.03997421 28.13422108 C-14.34225011 23.36683427 -15.40279924 19.69674813 -15.32122421 13.41547108 C-14.73178033 8.63442622 -11.89176625 5.8846093 -8.41497421 2.82172108 C-5.31457603 0.61880658 -3.73712304 0.00906686 0 0 Z M-10.03997421 6.13422108 C-12.97327769 10.80917349 -13.51289528 14.65131731 -12.68450546 19.98578358 C-11.43016925 24.16690429 -8.89992625 27.01586415 -5.13695657 29.2784726 C-2.85429869 30.2099926 -1.25700244 30.3857695 1.19924355 30.38869667 C2.46488705 30.39744496 2.46488705 30.39744496 3.7560991 30.40636998 C5.13906079 30.400701 5.13906079 30.400701 6.54996109 30.39491749 C7.53328151 30.39874304 8.51660194 30.40256858 9.52971995 30.40651006 C12.8338537 30.41685179 16.13781406 30.41284564 19.44195938 30.40887928 C21.80716997 30.41322512 24.17237914 30.41840783 26.53758621 30.42436695 C32.30092948 30.43638814 38.06421852 30.43890659 43.82757281 30.43656669 C48.51230958 30.43478414 53.1970322 30.4365318 57.88176727 30.44079113 C58.54835503 30.44138632 59.2149428 30.44198151 59.90173019 30.44259473 C61.25588667 30.44380648 62.61004314 30.44502061 63.96419962 30.44623711 C76.6664526 30.45711601 89.36867905 30.45494861 102.07093354 30.44885226 C113.69024063 30.44368383 125.30946387 30.45493595 136.92875437 30.47395048 C148.85958885 30.49332514 160.79038365 30.50158547 172.72123396 30.49782723 C179.41941684 30.49591448 186.11751779 30.49867401 192.81568909 30.51254177 C199.11445142 30.52509401 205.41304567 30.52320057 211.71180534 30.51013088 C214.02492135 30.50775983 216.33804909 30.51051862 218.65115166 30.51875401 C221.80633856 30.52917826 224.96095699 30.52115516 228.1161232 30.50844288 C229.03363621 30.51581716 229.95114922 30.52319145 230.89646566 30.5307892 C237.19179851 30.4773513 241.44184669 29.3801646 246.27252579 25.07172108 C248.69174917 20.86048037 249.27811694 16.96765494 248.96002579 12.13422108 C246.67171084 7.1914608 243.709466 4.69496647 238.96002579 2.13422108 C235.66863804 1.56546507 232.4320773 1.59393076 229.09834671 1.62628651 C227.61573582 1.61692656 227.61573582 1.61692656 226.1031732 1.60737753 C222.79357685 1.59143206 219.4847154 1.60405834 216.17511368 1.61664295 C213.80137579 1.61122252 211.42764126 1.6041003 209.05391312 1.59540272 C203.27707887 1.57905123 197.50047784 1.58145227 191.72363646 1.59305328 C187.0275024 1.6020929 182.33142659 1.60330933 177.63528633 1.59895802 C176.96648291 1.59834508 176.29767949 1.59773215 175.6086093 1.59710065 C174.24986461 1.59582172 172.89111993 1.59452487 171.53237527 1.59321028 C158.7952336 1.58180772 146.05820714 1.5949126 133.32108437 1.61641175 C122.3980208 1.63427838 111.4751273 1.63118165 100.5520668 1.6127367 C87.86154886 1.59131715 75.17113189 1.58291064 62.48059839 1.59518576 C61.12659261 1.59645992 59.77258682 1.59771741 58.41858101 1.59895802 C57.75242124 1.59957512 57.08626146 1.60019222 56.39991503 1.60082802 C51.71130463 1.60427799 47.0227584 1.59846015 42.33415794 1.5890398 C36.01970956 1.57748473 29.70558229 1.58550135 23.39116859 1.60861683 C21.07363925 1.61390589 18.75608289 1.61238681 16.4385643 1.60356617 C13.27490756 1.5926353 10.1122797 1.60634576 6.94868851 1.62628651 C6.03156163 1.61736362 5.11443475 1.60844073 4.16951615 1.59924746 C-1.72536795 1.6713151 -5.22830631 2.65865549 -10.03997421 6.13422108 Z " fill="#E4E4E5" transform="translate(139.03997421264648,142.86577892303467)"/>
<path d="M0 0 C0.84899703 -0.00569124 1.69799405 -0.01138248 2.57271826 -0.01724619 C3.51082701 -0.01842606 4.44893575 -0.01960594 5.41547203 -0.02082157 C6.40792313 -0.02590939 7.40037423 -0.03099721 8.4228996 -0.03623921 C11.76998081 -0.05201628 15.11704035 -0.06050261 18.46414757 -0.06893253 C20.85537416 -0.07846679 23.24659936 -0.08835776 25.6378231 -0.09858036 C32.83025719 -0.12730147 40.02269758 -0.1470556 47.21516663 -0.16397271 C49.24673455 -0.16876731 51.27830193 -0.17375069 53.30986929 -0.17877793 C65.9253443 -0.20975214 78.5408239 -0.23643821 91.15632629 -0.25319672 C94.07924597 -0.25714624 97.00216556 -0.26114922 99.92508507 -0.2652216 C101.01480584 -0.26673414 101.01480584 -0.26673414 102.12654118 -0.26827724 C113.89019213 -0.28527731 125.65363245 -0.32637773 137.41718061 -0.37724458 C149.49485447 -0.42903995 161.57242008 -0.45814162 173.65020406 -0.4653936 C180.43132005 -0.47005385 187.21209133 -0.48478307 193.99309731 -0.5251379 C200.37402736 -0.56196715 206.75436908 -0.57042554 213.13538551 -0.55713177 C215.47670913 -0.55718578 217.81805856 -0.56750697 220.15928459 -0.5888834 C223.35818454 -0.61652779 226.55493349 -0.60707125 229.75385094 -0.58844852 C231.14093756 -0.61364092 231.14093756 -0.61364092 232.55604613 -0.63934225 C239.23098715 -0.54235752 243.20892836 1.45733828 247.96561241 6.1398077 C251.2984746 10.82664516 251.86989111 15.54332734 250.96561241 21.1398077 C248.43320859 26.1108226 244.97700107 29.63411337 239.96561241 32.1398077 C238.62162487 32.23565735 237.27303531 32.27075978 235.9256382 32.27402878 C234.65029256 32.28071554 234.65029256 32.28071554 233.34918237 32.2875374 C232.40970938 32.28735303 231.4702364 32.28716867 230.50229454 32.28697872 C229.50843231 32.29065541 228.51457008 32.2943321 227.49059081 32.2981202 C224.13883507 32.30918999 220.78711029 32.31300645 217.43533897 32.31680965 C215.04086775 32.32307179 212.6463975 32.32971836 210.25192833 32.33672237 C203.05059743 32.35597428 195.84926907 32.36655423 188.64792025 32.37545016 C185.25763903 32.37983196 181.86735937 32.38519907 178.47707939 32.39043903 C167.20848095 32.40745249 155.9398835 32.42194682 144.67127419 32.42918777 C141.74627494 32.43109771 138.82127569 32.43301803 135.89627647 32.43497372 C134.80576877 32.43569933 134.80576877 32.43569933 133.6932306 32.4364396 C121.91535131 32.44474047 110.13757356 32.47007779 98.35973862 32.50255439 C86.27077162 32.53561744 74.18185623 32.55363587 62.09284377 32.55683202 C55.30405428 32.55899788 48.51541286 32.5677574 41.7266674 32.59329319 C35.34090774 32.61651533 28.95541484 32.62083061 22.56962395 32.61053181 C20.22425005 32.61003492 17.87886329 32.61640011 15.53352928 32.63008785 C12.33431881 32.647716 9.13607511 32.64074474 5.93686485 32.62755489 C5.00631476 32.63852414 4.07576466 32.64949339 3.11701608 32.66079503 C-2.43880453 32.60540287 -5.63593511 31.86183151 -10.03438759 28.1398077 C-14.43331863 23.14642652 -15.39115096 20.22965543 -15.31563759 13.6788702 C-14.76455074 8.70378057 -12.02741058 6.01461367 -8.40938759 2.8273077 C-5.31289635 0.62716919 -3.73232948 0.01456549 0 0 Z M-11.40938759 8.8898077 C-13.35693588 12.78490429 -13.83469193 15.90962762 -13.03438759 20.1398077 C-11.69010854 23.93097671 -9.91370957 26.55779121 -6.50314617 28.81521702 C-1.94131244 30.55721269 1.999177 30.55594907 6.84074974 30.52075863 C8.32547733 30.52777859 8.32547733 30.52777859 9.84019941 30.53494036 C13.15435714 30.54689903 16.46810205 30.53742952 19.7822628 30.52799129 C22.15924381 30.53205657 24.53622293 30.5373982 26.91319847 30.54392147 C32.69734971 30.55618436 38.48136992 30.5543849 44.26552517 30.54568355 C48.96643616 30.53890483 53.66731443 30.53799109 58.36822891 30.541255 C59.37230021 30.54194455 59.37230021 30.54194455 60.39665578 30.54264802 C61.75653193 30.54360721 63.11640807 30.54457985 64.4762842 30.5455658 C77.22288355 30.55411713 89.96941814 30.54428927 102.71600687 30.5281647 C113.65218709 30.51475866 124.5882718 30.51709243 135.5244503 30.53092098 C148.22738846 30.54697606 160.93026991 30.55329641 173.6332168 30.54408419 C174.98774842 30.54312855 176.34228004 30.54218544 177.69681168 30.541255 C178.36325287 30.54079217 179.02969407 30.54032934 179.71633046 30.53985249 C184.41188095 30.53726261 189.10739545 30.54163349 193.80294037 30.54869366 C200.12225534 30.55734805 206.44138956 30.55136918 212.76068497 30.53401089 C215.08228187 30.53003807 217.40389394 30.53119361 219.72548485 30.53779888 C222.88968275 30.54597273 226.05329813 30.53574275 229.21745872 30.52075863 C230.60188757 30.53079688 230.60188757 30.53079688 232.01428467 30.54103792 C236.82702062 30.49670258 240.06751766 30.27988036 243.96561241 27.1398077 C247.70591173 23.08743883 247.70591173 23.08743883 249.02029991 17.9679327 C248.58141961 11.67095451 247.68413147 8.42937048 242.96561241 4.1398077 C238.25446671 1.54002537 233.48938808 1.85474389 228.25542259 1.87238216 C226.77916032 1.86558549 226.77916032 1.86558549 225.27307457 1.85865152 C221.97205326 1.84598132 218.67119638 1.84762959 215.37015343 1.84928036 C213.00479482 1.84329682 210.63943817 1.83649168 208.27408409 1.82892513 C201.84648592 1.81124192 195.41894099 1.80656882 188.99132085 1.80529356 C184.9772074 1.80430545 180.96310328 1.79973367 176.94899368 1.79429913 C163.67257721 1.77669069 150.39619305 1.76745982 137.11976481 1.76896007 C136.40430223 1.76903999 135.68883966 1.7691199 134.9516964 1.76920223 C134.23535961 1.76928399 133.51902282 1.76936576 132.78097885 1.76944999 C121.16817963 1.77026314 109.55551004 1.75111735 97.94274832 1.7229255 C86.01640092 1.69420094 74.09011677 1.68038491 62.1637339 1.68211305 C55.46888888 1.68277703 48.7742002 1.67689272 42.07938385 1.65575695 C35.78467654 1.63642696 29.49025678 1.63621438 23.19553947 1.65079021 C20.88403149 1.65288579 18.57250575 1.64813312 16.26102829 1.6360693 C13.10794042 1.62067749 9.95585159 1.62988542 6.80278587 1.64533138 C5.88595498 1.63504426 4.96912409 1.62475713 4.02451044 1.61415827 C-2.92039228 1.68945213 -6.77013618 3.51804291 -11.40938759 8.8898077 Z " fill="#E4E5E6" transform="translate(139.03438758850098,205.86019229888916)"/>
<path d="M0 0 C3.2549815 4.06872688 5.53963766 7.51862573 8 12 C7.34 12.66 6.68 13.32 6 14 C5.69677321 15.63686312 5.45379449 17.28530898 5.25 18.9375 C4.38740025 23.71975301 4.38740025 23.71975301 1.0625 26.125 C-2 27 -2 27 -5 27 C-5.185625 26.2575 -5.37125 25.515 -5.5625 24.75 C-7.24713123 21.52722721 -8.95295944 20.70056387 -12.24609375 19.28515625 C-14 18 -14 18 -17 12 C-8.585 6.06 -8.585 6.06 0 0 Z " fill="#9C606A" transform="translate(622,551)"/>
<path d="M0 0 C0.33 0.99 0.66 1.98 1 3 C-0.65 3 -2.3 3 -4 3 C-3.94199219 3.75925781 -3.88398437 4.51851562 -3.82421875 5.30078125 C-3.68953995 8.26756276 -3.63680318 11.05066678 -4 14 C-6.375 15.9375 -6.375 15.9375 -9 17 C-10.19232613 19.05003955 -10.19232613 19.05003955 -11 21 C-13.98594424 22.49297212 -16.70853624 22.11755228 -20 22 C-20.66 21.67 -21.32 21.34 -22 21 C-21.95875 20.0925 -21.9175 19.185 -21.875 18.25 C-22.04007463 13.95805953 -22.99801155 12.00198845 -26 9 C-25.625 5.875 -25.625 5.875 -25 3 C-26.32 2.67 -27.64 2.34 -29 2 C-19.43 2 -9.86 2 0 2 C0 1.34 0 0.68 0 0 Z " fill="#99606A" transform="translate(564,575)"/>
<path d="M0 0 C1.70209877 0.00333092 1.70209877 0.00333092 3.43858337 0.00672913 C4.71983597 0.00680466 6.00108856 0.00688019 7.32116699 0.00695801 C8.73001646 0.01206542 10.13886554 0.01728143 11.54771423 0.02259827 C12.98118033 0.02446249 14.41464706 0.02588637 15.84811401 0.02688599 C19.62765755 0.03071079 23.40716288 0.04054075 27.18669128 0.05158997 C31.04075097 0.06180489 34.8948168 0.06638378 38.74888611 0.07142639 C46.31596085 0.08216306 53.88300407 0.09923903 61.45005798 0.12025452 C62.01255798 2.05775452 62.01255798 2.05775452 62.45005798 4.12025452 C61.45005798 5.12025452 61.45005798 5.12025452 58.8621521 5.24050903 C57.70965469 5.23828842 56.55715729 5.23606781 55.36973572 5.23377991 C53.4178257 5.23366661 53.4178257 5.23366661 51.42648315 5.23355103 C49.99553897 5.2284436 48.56459516 5.2232276 47.13365173 5.21791077 C45.67776538 5.21604655 44.22187841 5.21462266 42.76599121 5.21362305 C38.92726419 5.20979817 35.08857479 5.19996816 31.24986267 5.18891907 C27.33547983 5.17870429 23.42109093 5.17412529 19.50669861 5.16908264 C11.82113455 5.15834585 4.13560153 5.14126981 -3.54994202 5.12025452 C-3.54994202 0.16741422 -3.54994202 0.16741422 0 0 Z " fill="#E2E3E4" transform="translate(133.54994201660156,130.87974548339844)"/>
<path d="M0 0 C21.45 0 42.9 0 65 0 C65.495 1.98 65.495 1.98 66 4 C65 5 65 5 62.41209412 5.12025452 C61.25959671 5.11803391 60.1070993 5.11581329 58.91967773 5.11352539 C56.96776772 5.11341209 56.96776772 5.11341209 54.97642517 5.11329651 C53.54548098 5.10818909 52.11453718 5.10297308 50.68359375 5.09765625 C49.2277074 5.09579203 47.77182043 5.09436815 46.31593323 5.09336853 C42.47720621 5.08954365 38.63851681 5.07971364 34.79980469 5.06866455 C30.88542184 5.05844978 26.97103294 5.05387077 23.05664062 5.04882812 C15.37107657 5.03809134 7.68554355 5.02101529 0 5 C0 3.35 0 1.7 0 0 Z " fill="#E2E3E4" transform="translate(130,196)"/>
<path d="M0 0 C21.45 0 42.9 0 65 0 C65.495 1.98 65.495 1.98 66 4 C65 5 65 5 62.45005798 5.12025452 C60.74795921 5.1169236 60.74795921 5.1169236 59.01147461 5.11352539 C57.73022202 5.11344986 56.44896942 5.11337433 55.12889099 5.11329651 C53.72004152 5.10818909 52.31119244 5.10297309 50.90234375 5.09765625 C49.46887766 5.09579202 48.03541093 5.09436814 46.60194397 5.09336853 C42.82240043 5.08954372 39.0428951 5.07971377 35.2633667 5.06866455 C31.40930702 5.05844963 27.55524118 5.05387074 23.70117188 5.04882812 C16.13409713 5.03809146 8.56705391 5.02101549 1 5 C0.67 3.35 0.34 1.7 0 0 Z " fill="#E2E3E4" transform="translate(130,261)"/>
<path d="M0 0 C1.32 0 2.64 0 4 0 C4.33 2.31 4.66 4.62 5 7 C3.29115995 5.37660195 1.62553283 3.70680947 0 2 C0 1.34 0 0.68 0 0 Z " fill="#F3F0F1" transform="translate(582,325)"/>
</svg>
